<?xml version="1.0" encoding="UTF-8"?>
<svg version="1.1" xmlns="http://www.w3.org/2000/svg" width="1920" height="1080">
<path d="M0 0 C633.6 0 1267.2 0 1920 0 C1920 356.4 1920 712.8 1920 1080 C1286.4 1080 652.8 1080 0 1080 C0 723.6 0 367.2 0 0 Z " fill="#1F2937" transform="translate(0,0)"/>
<path d="M0 0 C63.571875 0 63.571875 0 76.08984375 11.921875 C83.36411871 19.83581013 84.66315272 29.4254559 84.375 39.8515625 C83.80512791 48.6479453 80.21193752 56.91866002 74.10546875 63.28125 C70.12154443 66.53343312 65.61914033 68.78618316 61 71 C60.01 71.495 60.01 71.495 59 72 C60.42305762 75.86592178 62.23333145 79.22599914 64.38671875 82.734375 C65.0712915 83.85481201 65.75586426 84.97524902 66.46118164 86.12963867 C66.82438507 86.72022064 67.1875885 87.31080261 67.5617981 87.91928101 C69.08693307 90.39959444 70.60334226 92.88519999 72.12028503 95.37052917 C72.90307898 96.65285924 73.68629621 97.934931 74.46992493 99.2167511 C78.52863496 105.85695876 82.55197954 112.5181006 86.5625 119.1875 C87.21114014 120.26161133 87.85978027 121.33572266 88.52807617 122.44238281 C89.1182251 123.42432617 89.70837402 124.40626953 90.31640625 125.41796875 C90.83662354 126.28188232 91.35684082 127.1457959 91.89282227 128.03588867 C93 130 93 130 93 131 C87.00638855 131.74920143 80.93698424 132.45364305 75 131 C71.44569671 128.06602323 69.96742747 124.51301603 68.11865234 120.34667969 C65.77291594 115.4258551 62.84386879 110.80829664 60.0625 106.125 C58.85112554 104.04267737 57.64146512 101.95935659 56.43359375 99.875 C53.1900682 94.30285858 49.88272733 88.77131451 46.48852539 83.28955078 C44 79.21545348 44 79.21545348 44 77 C34.76 77 25.52 77 16 77 C16 94.82 16 112.64 16 131 C10.72 131 5.44 131 0 131 C0 87.77 0 44.54 0 0 Z " fill="#F8F9F9" transform="translate(1225,474)"/>
<path d="M0 0 C4.56005984 1.86547902 6.71582225 4.68544202 9 9 C9.74574824 14.83525937 7.53320277 19.55368015 5.40625 24.86328125 C4.83928406 26.31380135 4.83928406 26.31380135 4.26086426 27.79362488 C3.01665151 30.97036885 1.75832802 34.1413238 0.5 37.3125 C-0.37468558 39.53867469 -1.24837195 41.76524222 -2.12109375 43.9921875 C-3.89594851 48.5171606 -5.67605948 53.0400065 -7.4609375 57.56103516 C-10.67932378 65.71579944 -13.86371049 73.88370144 -17.04605103 82.05258179 C-18.0109475 84.52808652 -18.97728466 87.0030241 -19.9440918 89.4777832 C-27.52571859 108.8860184 -35.04892749 128.31690826 -42.57666016 147.74609375 C-44.97070272 153.92485808 -47.36599835 160.10313605 -49.76171875 166.28125 C-50.15353333 167.29166855 -50.5453479 168.3020871 -50.94903564 169.34312439 C-52.52316966 173.40244221 -54.09735711 177.46173931 -55.67156982 181.52102661 C-59.76476979 192.07588682 -63.85739067 202.63096978 -67.94699097 213.18722534 C-69.69046198 217.68742265 -71.43432725 222.18746713 -73.17822266 226.6875 C-74.00768401 228.82821143 -74.83695318 230.96899733 -75.66601562 233.10986328 C-76.81721812 236.08254697 -77.96908915 239.05497083 -79.12109375 242.02734375 C-79.455681 242.89185654 -79.79026825 243.75636932 -80.13499451 244.64707947 C-80.76940762 246.28324486 -81.4061978 247.91849101 -82.04562378 249.55270386 C-82.71763696 251.27593964 -83.38084089 253.00262375 -84.03762817 254.73171997 C-84.38107269 255.62148529 -84.72451721 256.51125061 -85.07836914 257.42797852 C-85.38416397 258.22986099 -85.6899588 259.03174347 -86.00502014 259.85792542 C-87.75600913 263.62759873 -89.32098905 264.95610503 -93 267 C-97.19633637 267.82013089 -101.08667957 268.01248144 -104.94140625 265.97265625 C-107.60562055 263.86054419 -108.92120543 262.23638371 -110 259 C-110.75007726 251.49070382 -108.36348845 245.93088831 -105.5 239.0625 C-104.74806302 237.20439343 -103.99620016 235.34625592 -103.24642944 233.48727417 C-102.70454391 232.14569927 -102.16089492 230.80483553 -101.6156311 229.46463013 C-98.4574973 221.70031484 -95.41833736 213.89014345 -92.37875366 206.0788269 C-91.36106553 203.46419979 -90.34151296 200.85030618 -89.3215332 198.23657227 C-83.70363802 183.83561869 -78.12935056 169.41794894 -72.56347656 154.99682617 C-65.27728307 136.11901773 -57.96027647 117.25320629 -50.64097595 98.38821411 C-47.35479825 89.91725393 -44.07371715 81.44432543 -40.79370117 72.97097778 C-37.62530065 64.78759233 -34.44827731 56.60757746 -31.26831055 48.42868042 C-29.17386209 43.03751466 -27.09285989 37.6414932 -25.02737427 32.23916626 C-23.84017997 29.13852194 -22.64422378 26.04130892 -21.44622803 22.94482422 C-20.90807289 21.5475007 -20.37394421 20.14861828 -19.84429932 18.74804688 C-12.26791976 -1.27643096 -12.26791976 -1.27643096 0 0 Z " fill="#234D8C" transform="translate(347,406)"/>
<path d="M0 0 C61.59838235 0 61.59838235 0 73.8125 11.1875 C82.23902523 20.33117632 83.33778588 30.52551252 83.2109375 42.5 C82.5929311 52.75432849 78.22228762 61.39168319 70.625 68.3125 C58.55997606 77.81272493 44.01964957 79.62699527 29.125 79.25 C24.46375 79.1675 19.8025 79.085 15 79 C15 96.16 15 113.32 15 131 C10.05 131 5.1 131 0 131 C0 87.77 0 44.54 0 0 Z " fill="#FDFDFD" transform="translate(863,474)"/>
<path d="M0 0 C3.49760204 1.97223506 6.57221512 4.27214733 9.6796875 6.79296875 C10.91915713 7.7826945 12.15874375 8.77227374 13.3984375 9.76171875 C14.02621094 10.26574219 14.65398437 10.76976562 15.30078125 11.2890625 C18.24389782 13.6447795 21.21232721 15.9679232 24.1796875 18.29296875 C25.34648987 19.20946268 26.51315623 20.12612979 27.6796875 21.04296875 C28.2571875 21.49671875 28.8346875 21.95046875 29.4296875 22.41796875 C62.6796875 48.54296875 62.6796875 48.54296875 64.42993164 49.91821289 C65.59571673 50.83415203 66.76156951 51.75000501 67.92749023 52.66577148 C70.85820847 54.96786478 73.78770661 57.27147953 76.71484375 59.578125 C77.59015747 60.26720947 77.59015747 60.26720947 78.4831543 60.97021484 C79.64808799 61.88761024 80.81232346 62.80589302 81.97583008 63.72509766 C84.90446595 66.03240738 87.85203804 68.30617418 90.84375 70.53125 C91.43534912 70.97460693 92.02694824 71.41796387 92.63647461 71.87475586 C94.26439332 73.0911595 95.89954318 74.2978685 97.53515625 75.50390625 C101.29590088 78.75914458 102.9884263 81.2902022 103.6171875 86.23046875 C102.71341283 93.58977676 97.49440875 97.54984707 91.9921875 101.85546875 C91.2909375 102.41492188 90.5896875 102.974375 89.8671875 103.55078125 C84.15644104 108.08489079 78.35770342 112.50466636 72.54711914 116.90966797 C66.90679705 121.19752643 61.40322852 125.63556176 55.92236328 130.12451172 C50.81812376 134.29725601 45.62711696 138.33617611 40.38671875 142.3359375 C36.98114489 144.9369956 33.60935556 147.57996777 30.2421875 150.23046875 C29.66500977 150.68462158 29.08783203 151.13877441 28.49316406 151.60668945 C26.10405543 153.48759732 23.71606654 155.36992118 21.32861328 157.25292969 C-1.52743354 175.27669205 -1.52743354 175.27669205 -7.2578125 174.73046875 C-11.82823292 174.10551835 -13.98538459 172.51381163 -16.8203125 168.79296875 C-18.04407122 165.1216926 -18.70778285 161.57465212 -17.8203125 157.79296875 C-14.64902497 153.41877906 -11.23782422 150.34014959 -6.8828125 147.10546875 C-5.72596823 146.23646763 -4.56973917 145.36664704 -3.4140625 144.49609375 C-2.82109375 144.05201172 -2.228125 143.60792969 -1.6171875 143.15039062 C1.32662886 140.92652935 4.22130103 138.64118108 7.1171875 136.35546875 C8.29293819 135.42964869 9.46871958 134.50386762 10.64453125 133.578125 C11.22831543 133.11809082 11.81209961 132.65805664 12.41357422 132.18408203 C15.33339798 129.88422638 18.25670643 127.5888093 21.1796875 125.29296875 C22.34637111 124.37632365 23.51303777 123.45965698 24.6796875 122.54296875 C39.84635417 110.62630208 55.01302083 98.70963542 70.1796875 86.79296875 C65.01620976 82.16678108 59.72578667 77.82492086 54.1796875 73.66796875 C48.34108984 69.25038841 42.59280593 64.74586954 36.9296875 60.10546875 C30.70331286 55.00738867 24.38650631 50.06202258 17.98876953 45.1796875 C12.85232097 41.24243678 7.75415941 37.25538228 2.65234375 33.2734375 C-0.22317076 31.03002702 -3.1105822 28.80390988 -6.01171875 26.59375 C-6.6569751 26.0980249 -7.30223145 25.6022998 -7.96704102 25.09155273 C-9.1672865 24.16958838 -10.37195325 23.25333981 -11.58178711 22.34399414 C-15.33655448 19.44369342 -17.42965599 17.33223605 -18.15625 12.609375 C-18.22556161 8.61009509 -18.16143221 6.36556254 -16.0703125 2.85546875 C-11.19203285 -1.6162876 -6.32742362 -2.70799709 0 0 Z " fill="#224C8C" transform="translate(366.8203125,453.20703125)"/>
<path d="M0 0 C3.75212276 2.01502889 5.63644095 3.45466142 8 7 C8.3359375 9.05078125 8.3359375 9.05078125 8.375 11.3125 C8.40335937 12.05113281 8.43171875 12.78976562 8.4609375 13.55078125 C7.27717726 19.84076152 2.5081201 23.55227331 -2.375 27.1875 C-3.63821085 28.15339737 -4.90122646 29.11955014 -6.1640625 30.0859375 C-6.80504883 30.5715918 -7.44603516 31.05724609 -8.10644531 31.55761719 C-11.01575029 33.77373037 -13.88095752 36.0446815 -16.75 38.3125 C-22.92012399 43.1669745 -29.11880824 47.98447422 -35.31835938 52.80126953 C-41.66042236 57.73083127 -47.98126037 62.6868052 -54.29248047 67.65576172 C-56.69364404 69.54606865 -59.09570487 71.43523202 -61.49829102 73.32373047 C-62.69057361 74.26106258 -63.88247971 75.19887383 -65.07397461 76.13720703 C-69.16041753 79.35236633 -73.27796634 82.52437751 -77.42578125 85.66015625 C-79.12972104 86.93338717 -79.12972104 86.93338717 -80 89 C-79.47148437 89.22816406 -78.94296875 89.45632813 -78.3984375 89.69140625 C-75.2016374 91.43558872 -72.45557389 93.66675072 -69.625 95.9375 C-68.3672621 96.93629186 -67.10944747 97.93498711 -65.8515625 98.93359375 C-65.2112207 99.44390137 -64.57087891 99.95420898 -63.91113281 100.47998047 C-60.95161233 102.83383516 -57.9755135 105.16642054 -55 107.5 C-53.83324284 108.41655148 -52.66657643 109.3332185 -51.5 110.25 C-50.9225 110.70375 -50.345 111.1575 -49.75 111.625 C-47.125 113.6875 -47.125 113.6875 -44.5 115.75 C-43.92258057 116.20366943 -43.34516113 116.65733887 -42.75024414 117.12475586 C-41.5826959 118.04215009 -40.41521551 118.95963067 -39.24780273 119.87719727 C-36.3451721 122.15844245 -33.44140726 124.43821214 -30.53515625 126.71484375 C-23.15478524 132.49931855 -15.81090551 138.32715653 -8.5 144.19921875 C-6.32333 145.94612683 -4.13638132 147.67525287 -1.9375 149.39453125 C-1.050625 150.08933594 -0.16375 150.78414062 0.75 151.5 C1.50796875 152.0878125 2.2659375 152.675625 3.046875 153.28125 C5.72329576 155.63650027 7.71400534 157.58290935 8.43359375 161.1484375 C8.44308163 166.55653129 7.76986734 169.82257943 4 174 C0.62566095 176.15582773 -2.69099904 176.49183754 -6.65234375 175.84765625 C-11.52035284 174.08998908 -15.37790898 170.57675556 -19.34960938 167.33984375 C-21.01507136 165.98776455 -22.69868007 164.66250022 -24.390625 163.34375 C-27.3421118 161.04297159 -30.28165771 158.7275758 -33.21777344 156.40722656 C-36.14079874 154.09923781 -39.07069851 151.80001378 -42 149.5 C-43.16670056 148.58337648 -44.33336721 147.66670978 -45.5 146.75 C-46.0775 146.29625 -46.655 145.8425 -47.25 145.375 C-58.33333333 136.66666667 -69.41666667 127.95833333 -80.5 119.25 C-81.07814453 118.7957666 -81.65628906 118.3415332 -82.25195312 117.87353516 C-83.41219985 116.96186643 -84.57235691 116.05008359 -85.73242188 115.13818359 C-88.74656785 112.76907842 -91.76250217 110.40230195 -94.78125 108.0390625 C-95.40386719 107.55115234 -96.02648437 107.06324219 -96.66796875 106.56054688 C-97.84707151 105.63662307 -99.02671608 104.71339007 -100.20703125 103.79101562 C-111.74833791 94.74252102 -111.74833791 94.74252102 -112.30859375 90.86328125 C-112.35113281 90.02152344 -112.39367187 89.17976562 -112.4375 88.3125 C-112.49808594 87.48363281 -112.55867188 86.65476562 -112.62109375 85.80078125 C-111.01896834 78.57610251 -103.78695433 74.01695344 -98.125 69.875 C-96.61039305 68.74300454 -95.09741166 67.60883132 -93.5859375 66.47265625 C-92.82249023 65.89918457 -92.05904297 65.32571289 -91.27246094 64.73486328 C-87.69945001 62.00712202 -84.22356578 59.16512148 -80.75 56.3125 C-74.98005408 51.58524767 -69.13618349 46.98248777 -63.20703125 42.45703125 C-59.80145877 39.8559742 -56.42960435 37.21308007 -53.0625 34.5625 C-52.19020752 33.87583252 -52.19020752 33.87583252 -51.30029297 33.17529297 C-50.1220986 32.24740379 -48.94403901 31.31934346 -47.76611328 30.39111328 C-44.26809283 27.63582982 -40.76543863 24.88643894 -37.26342773 22.13623047 C-34.2698615 19.78489277 -31.27802214 17.43141034 -28.2890625 15.07421875 C-7.80275168 -1.07324094 -7.80275168 -1.07324094 0 0 Z " fill="#234D8D" transform="translate(237,452)"/>
<path d="M0 0 C1.79244141 0.01740234 1.79244141 0.01740234 3.62109375 0.03515625 C5.41740234 0.04869141 5.41740234 0.04869141 7.25 0.0625 C8.17683594 0.07410156 9.10367187 0.08570313 10.05859375 0.09765625 C12.86705823 6.28881932 15.48090349 12.53468502 17.97265625 18.859375 C18.33986786 19.78718277 18.70707947 20.71499054 19.0854187 21.6709137 C20.28679872 24.70821295 21.4852898 27.74664222 22.68359375 30.78515625 C23.52792041 32.92222991 24.37232267 35.0592737 25.21679688 37.19628906 C32.87100595 56.5778128 40.46425346 75.9831253 48.04510498 95.39343262 C50.23081537 100.98716563 52.42552621 106.57726718 54.62890625 112.1640625 C54.89616516 112.84211945 55.16342407 113.52017639 55.43878174 114.21878052 C56.64522494 117.27918251 57.85336053 120.3388954 59.06445312 123.39746094 C59.46728516 124.4187207 59.87011719 125.43998047 60.28515625 126.4921875 C60.63143066 127.36721924 60.97770508 128.24225098 61.33447266 129.14379883 C62.05859375 131.09765625 62.05859375 131.09765625 62.05859375 132.09765625 C56.77859375 132.09765625 51.49859375 132.09765625 46.05859375 132.09765625 C42.43876347 124.31535202 39.11534777 116.4600819 35.98168945 108.46972656 C35.23518592 106.56989613 34.48006245 104.67363059 33.72460938 102.77734375 C33.25087891 101.57335937 32.77714844 100.369375 32.2890625 99.12890625 C31.86004639 98.04158203 31.43103027 96.95425781 30.98901367 95.83398438 C30.05859375 93.09765625 30.05859375 93.09765625 30.05859375 90.09765625 C12.56859375 90.42765625 -4.92140625 90.75765625 -22.94140625 91.09765625 C-28.22140625 104.62765625 -33.50140625 118.15765625 -38.94140625 132.09765625 C-44.22140625 132.09765625 -49.50140625 132.09765625 -54.94140625 132.09765625 C-50.87162793 121.19187434 -46.73012016 110.31864025 -42.50390625 99.47265625 C-42.2062738 98.70786957 -41.90864136 97.94308289 -41.60198975 97.15512085 C-36.35265057 83.6680566 -31.04729623 70.20344215 -25.72045898 56.74682617 C-22.27895045 48.04809394 -18.86164005 39.3404359 -15.47265625 30.62109375 C-15.10304779 29.67076767 -14.73343933 28.72044159 -14.35263062 27.74131775 C-12.55015775 23.105973 -10.75064104 18.46951356 -8.95556641 13.83129883 C-8.3077164 12.16353568 -7.65977225 10.49580909 -7.01171875 8.828125 C-6.71454956 8.05717499 -6.41738037 7.28622498 -6.11120605 6.49191284 C-3.63018798 0.12052417 -3.63018798 0.12052417 0 0 Z " fill="#FAFAFA" transform="translate(1733.94140625,472.90234375)"/>
<path d="M0 0 C1.79244141 0.01740234 1.79244141 0.01740234 3.62109375 0.03515625 C5.41740234 0.04869141 5.41740234 0.04869141 7.25 0.0625 C8.17683594 0.07410156 9.10367187 0.08570313 10.05859375 0.09765625 C12.86705823 6.28881932 15.48090349 12.53468502 17.97265625 18.859375 C18.33986786 19.78718277 18.70707947 20.71499054 19.0854187 21.6709137 C20.28679872 24.70821295 21.4852898 27.74664222 22.68359375 30.78515625 C23.52792041 32.92222991 24.37232267 35.0592737 25.21679688 37.19628906 C32.87100595 56.5778128 40.46425346 75.9831253 48.04510498 95.39343262 C50.23081537 100.98716563 52.42552621 106.57726718 54.62890625 112.1640625 C54.89616516 112.84211945 55.16342407 113.52017639 55.43878174 114.21878052 C56.64522494 117.27918251 57.85336053 120.3388954 59.06445312 123.39746094 C59.46728516 124.4187207 59.87011719 125.43998047 60.28515625 126.4921875 C60.63143066 127.36721924 60.97770508 128.24225098 61.33447266 129.14379883 C62.05859375 131.09765625 62.05859375 131.09765625 62.05859375 132.09765625 C56.77859375 132.09765625 51.49859375 132.09765625 46.05859375 132.09765625 C42.43876347 124.31535202 39.11534777 116.4600819 35.98168945 108.46972656 C35.23518592 106.56989613 34.48006245 104.67363059 33.72460938 102.77734375 C33.25087891 101.57335937 32.77714844 100.369375 32.2890625 99.12890625 C31.86004639 98.04158203 31.43103027 96.95425781 30.98901367 95.83398438 C30.05859375 93.09765625 30.05859375 93.09765625 30.05859375 90.09765625 C12.56859375 90.42765625 -4.92140625 90.75765625 -22.94140625 91.09765625 C-28.22140625 104.62765625 -33.50140625 118.15765625 -38.94140625 132.09765625 C-44.22140625 132.09765625 -49.50140625 132.09765625 -54.94140625 132.09765625 C-50.87162793 121.19187434 -46.73012016 110.31864025 -42.50390625 99.47265625 C-42.2062738 98.70786957 -41.90864136 97.94308289 -41.60198975 97.15512085 C-36.35265057 83.6680566 -31.04729623 70.20344215 -25.72045898 56.74682617 C-22.27895045 48.04809394 -18.86164005 39.3404359 -15.47265625 30.62109375 C-15.10304779 29.67076767 -14.73343933 28.72044159 -14.35263062 27.74131775 C-12.55015775 23.105973 -10.75064104 18.46951356 -8.95556641 13.83129883 C-8.3077164 12.16353568 -7.65977225 10.49580909 -7.01171875 8.828125 C-6.71454956 8.05717499 -6.41738037 7.28622498 -6.11120605 6.49191284 C-3.63018798 0.12052417 -3.63018798 0.12052417 0 0 Z " fill="#FAFAFA" transform="translate(1478.94140625,472.90234375)"/>
<path d="M0 0 C1.79244141 0.01740234 1.79244141 0.01740234 3.62109375 0.03515625 C5.41740234 0.04869141 5.41740234 0.04869141 7.25 0.0625 C8.17683594 0.07410156 9.10367187 0.08570313 10.05859375 0.09765625 C19.22757861 22.23800337 27.92860777 44.55784055 36.63427734 66.88330078 C40.33224738 76.36507817 44.0406418 85.84277859 47.74923706 95.32040405 C48.90695843 98.27957555 50.06401395 101.23900666 51.22094727 104.19848633 C51.93503963 106.02425872 52.64915002 107.85002406 53.36328125 109.67578125 C53.67920731 110.48430038 53.99513336 111.29281952 54.32063293 112.12583923 C54.62329575 112.89932205 54.92595856 113.67280487 55.23779297 114.46972656 C55.53087341 115.22080688 55.82395386 115.97188721 56.12591553 116.74572754 C56.79619443 118.43596555 57.48185171 120.12013515 58.17730713 121.8001709 C58.54434753 122.69079224 58.91138794 123.58141357 59.28955078 124.49902344 C59.62745636 125.30732605 59.96536194 126.11562866 60.31350708 126.94842529 C61.05859375 129.09765625 61.05859375 129.09765625 61.05859375 132.09765625 C55.77859375 132.09765625 50.49859375 132.09765625 45.05859375 132.09765625 C39.77859375 118.56765625 34.49859375 105.03765625 29.05859375 91.09765625 C11.89859375 91.09765625 -5.26140625 91.09765625 -22.94140625 91.09765625 C-25.02453125 96.37765625 -27.10765625 101.65765625 -29.25390625 107.09765625 C-29.90528564 108.74765625 -30.55666504 110.39765625 -31.2277832 112.09765625 C-31.75347076 113.43096877 -32.27910871 114.76430085 -32.8046875 116.09765625 C-33.07003296 116.76925781 -33.33537842 117.44085937 -33.60876465 118.1328125 C-35.43564963 122.76996758 -37.20138383 127.42718977 -38.94140625 132.09765625 C-44.22140625 132.09765625 -49.50140625 132.09765625 -54.94140625 132.09765625 C-52.2260339 123.55953122 -48.95391926 115.24947075 -45.69140625 106.91015625 C-45.06591058 105.30700078 -44.44050566 103.7038099 -43.81518555 102.10058594 C-37.94518729 87.0631948 -32.02281382 72.04646142 -26.08123779 57.03723145 C-23.75977041 51.1712908 -21.44502866 45.3027231 -19.13279724 39.43313599 C-17.37770809 34.97886051 -15.62045603 30.52544004 -13.86288452 26.07214355 C-13.00069317 23.88621256 -12.13938087 21.69993462 -11.27896118 19.51330566 C-10.07770532 16.46103897 -8.87321728 13.41006689 -7.66796875 10.359375 C-7.1237603 8.97322243 -7.1237603 8.97322243 -6.56855774 7.55906677 C-6.23607529 6.71932816 -5.90359283 5.87958954 -5.56103516 5.0144043 C-5.27096588 4.27852585 -4.98089661 3.5426474 -4.68203735 2.7844696 C-3.43903835 -0.04650429 -3.3115567 0.10994544 0 0 Z " fill="#FAFAFA" transform="translate(1145.94140625,472.90234375)"/>
<path d="M0 0 C1.79244141 0.01740234 1.79244141 0.01740234 3.62109375 0.03515625 C5.41740234 0.04869141 5.41740234 0.04869141 7.25 0.0625 C8.17683594 0.07410156 9.10367188 0.08570313 10.05859375 0.09765625 C19.22757861 22.23800337 27.92860777 44.55784055 36.63427734 66.88330078 C40.33224738 76.36507817 44.0406418 85.84277859 47.74923706 95.32040405 C48.90695843 98.27957555 50.06401395 101.23900666 51.22094727 104.19848633 C51.93503963 106.02425872 52.64915002 107.85002406 53.36328125 109.67578125 C53.67920731 110.48430038 53.99513336 111.29281952 54.32063293 112.12583923 C54.62329575 112.89932205 54.92595856 113.67280487 55.23779297 114.46972656 C55.53087341 115.22080688 55.82395386 115.97188721 56.12591553 116.74572754 C56.79619443 118.43596555 57.48185171 120.12013515 58.17730713 121.8001709 C58.54434753 122.69079224 58.91138794 123.58141357 59.28955078 124.49902344 C59.62745636 125.30732605 59.96536194 126.11562866 60.31350708 126.94842529 C61.05859375 129.09765625 61.05859375 129.09765625 61.05859375 132.09765625 C55.77859375 132.09765625 50.49859375 132.09765625 45.05859375 132.09765625 C39.77859375 118.56765625 34.49859375 105.03765625 29.05859375 91.09765625 C11.89859375 91.09765625 -5.26140625 91.09765625 -22.94140625 91.09765625 C-25.02453125 96.37765625 -27.10765625 101.65765625 -29.25390625 107.09765625 C-29.90528564 108.74765625 -30.55666504 110.39765625 -31.2277832 112.09765625 C-31.75347076 113.43096877 -32.27910871 114.76430085 -32.8046875 116.09765625 C-33.07003296 116.76925781 -33.33537842 117.44085937 -33.60876465 118.1328125 C-35.43564963 122.76996758 -37.20138383 127.42718977 -38.94140625 132.09765625 C-44.22140625 132.09765625 -49.50140625 132.09765625 -54.94140625 132.09765625 C-52.2260339 123.55953122 -48.95391926 115.24947075 -45.69140625 106.91015625 C-45.06591058 105.30700078 -44.44050566 103.7038099 -43.81518555 102.10058594 C-37.94518729 87.0631948 -32.02281382 72.04646142 -26.08123779 57.03723145 C-23.75977041 51.1712908 -21.44502866 45.3027231 -19.13279724 39.43313599 C-17.37770809 34.97886051 -15.62045603 30.52544004 -13.86288452 26.07214355 C-13.00069317 23.88621256 -12.13938087 21.69993462 -11.27896118 19.51330566 C-10.07770532 16.46103897 -8.87321728 13.41006689 -7.66796875 10.359375 C-7.1237603 8.97322243 -7.1237603 8.97322243 -6.56855774 7.55906677 C-6.23607529 6.71932816 -5.90359283 5.87958954 -5.56103516 5.0144043 C-5.27096588 4.27852585 -4.98089661 3.5426474 -4.68203735 2.7844696 C-3.43903835 -0.04650429 -3.3115567 0.10994544 0 0 Z " fill="#FAFAFA" transform="translate(579.94140625,472.90234375)"/>
<path d="M0 0 C18 0 18 0 22.46875 4.28515625 C23.54628184 6.17420373 24.55502888 8.10377469 25.5 10.0625 C26.63268993 12.10365581 27.76680844 14.14401951 28.90234375 16.18359375 C29.42940918 17.18503418 29.95647461 18.18647461 30.49951172 19.21826172 C32.46267271 22.85774371 34.7058549 26.23286658 37.0625 29.625 C37.86431831 30.81352945 38.66376152 32.00366434 39.4609375 33.1953125 C39.86795898 33.8027832 40.27498047 34.41025391 40.69433594 35.03613281 C43.22191878 38.83790477 45.70288616 42.67006594 48.1875 46.5 C48.73317627 47.34111328 49.27885254 48.18222656 49.84106445 49.04882812 C50.97726486 50.80042244 52.11341288 52.55205074 53.24951172 54.30371094 C56.24325442 58.91499327 59.24643384 63.52011237 62.25 68.125 C62.86077393 69.06174561 63.47154785 69.99849121 64.10083008 70.96362305 C67.62651733 76.36888798 71.15833545 81.77008853 74.6953125 87.16796875 C75.48276576 88.37026792 76.2702008 89.57257903 77.05761719 90.77490234 C78.58050832 93.10023443 80.10481681 95.42462904 81.62988281 97.74853516 C82.31663086 98.79702637 83.00337891 99.84551758 83.7109375 100.92578125 C84.32243652 101.85817627 84.93393555 102.79057129 85.56396484 103.7512207 C87 106 87 106 88 108 C88 72.36 88 36.72 88 0 C92.62 0 97.24 0 102 0 C102 43.23 102 86.46 102 131 C96.39 131 90.78 131 85 131 C81.16699845 127.11301251 79.44531725 124.66881306 77 120 C75.82773439 118.07184449 74.61902798 116.16980667 73.40673828 114.26660156 C72.10581178 112.21981053 70.83080267 110.15849043 69.55859375 108.09375 C67.17889819 104.25884492 64.70591532 100.49488003 62.1875 96.75 C56.58674464 88.4159784 51.12594644 79.99317397 45.66455078 71.56738281 C42.98777524 67.43875688 40.30655053 63.31302561 37.625 59.1875 C37.10212402 58.38296387 36.57924805 57.57842773 36.04052734 56.74951172 C31.63666822 49.97526576 27.22574213 43.20563626 22.8125 36.4375 C22.1642627 35.44322998 21.51602539 34.44895996 20.84814453 33.42456055 C20.24470215 32.4994165 19.64125977 31.57427246 19.01953125 30.62109375 C18.21672729 29.39024048 18.21672729 29.39024048 17.39770508 28.13452148 C16.27342237 26.41756014 15.13841561 24.70762342 14 23 C14 58.64 14 94.28 14 131 C9.38 131 4.76 131 0 131 C0 87.77 0 44.54 0 0 Z " fill="#FCFCFC" transform="translate(1559,474)"/>
<path d="M0 0 C5.28 0 10.56 0 16 0 C16 18.48 16 36.96 16 56 C38.44 56 60.88 56 84 56 C84 37.85 84 19.7 84 1 C89.28 1 94.56 1 100 1 C100 44.23 100 87.46 100 132 C95.05 132 90.1 132 85 132 C85 111.54 85 91.08 85 70 C61.9 70 38.8 70 15 70 C15 90.46 15 110.92 15 132 C10.05 132 5.1 132 0 132 C0 88.44 0 44.88 0 0 Z " fill="#F8F9F9" transform="translate(973,473)"/>
<path d="M0 0 C24.09 0 48.18 0 73 0 C73 4.29 73 8.58 73 13 C53.86 13 34.72 13 15 13 C15 27.19 15 41.38 15 56 C33.15 56 51.3 56 70 56 C70 60.29 70 64.58 70 69 C52.18 69 34.36 69 16 69 C16 84.84 16 100.68 16 117 C35.14 117 54.28 117 74 117 C74 121.62 74 126.24 74 131 C49.58 131 25.16 131 0 131 C0 87.77 0 44.54 0 0 Z " fill="#FBFBFB" transform="translate(760,474)"/>
<path d="M0 0 C1.10794922 -0.01611328 2.21589844 -0.03222656 3.35742188 -0.04882812 C14.91316089 -0.05558192 24.75306369 2.80921099 35.3125 7.3125 C33.9925 11.6025 32.6725 15.8925 31.3125 20.3125 C30.075 20.044375 28.8375 19.77625 27.5625 19.5 C26.72589844 19.32082031 25.88929688 19.14164062 25.02734375 18.95703125 C22.3125 18.3125 22.3125 18.3125 19.81640625 17.51171875 C12.90116077 15.39398755 6.246277 14.96185975 -0.9375 14.875 C-1.87231201 14.8529248 -2.80712402 14.83084961 -3.77026367 14.80810547 C-10.55690977 14.82862534 -16.1538239 16.03221731 -21.24682617 20.76000977 C-25.37787404 25.41356749 -26.0200051 28.97225104 -25.89453125 35.09765625 C-25.3470748 40.95440734 -23.99456348 45.32547473 -19.59765625 49.3359375 C-15.76117975 52.46708836 -11.73732786 54.42205419 -7.1875 56.3125 C-6.40431396 56.65079834 -5.62112793 56.98909668 -4.81420898 57.33764648 C-0.45456132 59.20568865 3.94204387 60.95635981 8.37109375 62.65185547 C20.24691277 67.2225644 30.88569628 72.86511691 36.97265625 84.48046875 C38.73843111 88.81695312 38.8086798 92.99114415 38.75 97.625 C38.74170166 98.46587158 38.73340332 99.30674316 38.72485352 100.1730957 C38.46434455 109.75074034 35.88782244 116.59778122 29.1953125 123.5703125 C16.74941599 135.08663997 -0.37681715 136.24458649 -16.53515625 135.74609375 C-25.41748751 135.25747556 -36.13951789 134.34448807 -43.6875 129.3125 C-43.90887393 126.68552936 -43.96912025 124.30356036 -43.875 121.6875 C-43.86146484 120.98109375 -43.84792969 120.2746875 -43.83398438 119.546875 C-43.7986104 117.80175872 -43.74480221 116.05703392 -43.6875 114.3125 C-41.95113281 114.83650391 -41.95113281 114.83650391 -40.1796875 115.37109375 C-38.64068161 115.83091868 -37.10161593 116.29054352 -35.5625 116.75 C-34.80195312 116.98009766 -34.04140625 117.21019531 -33.2578125 117.44726562 C-19.74478397 121.4662267 -0.83541776 123.48034559 12.3125 117.3125 C13.64757904 116.31483185 14.98119163 115.31519428 16.3125 114.3125 C16.9725 114.3125 17.6325 114.3125 18.3125 114.3125 C18.745625 113.2296875 18.745625 113.2296875 19.1875 112.125 C19.87995526 110.39386184 20.5974363 108.6721937 21.35546875 106.96875 C23.20967612 101.82237853 23.29748315 96.23245004 21.54296875 91.03125 C16.42587613 81.62881834 4.77335004 78.02631582 -4.625 74.3125 C-32.92751398 63.08565504 -32.92751398 63.08565504 -39.6875 49.3125 C-43.18085091 40.89893654 -43.10128185 29.90586022 -40.8828125 21.12890625 C-37.14140603 12.85910782 -29.88320387 6.94334584 -21.8046875 3.1015625 C-14.37527979 0.33266885 -7.92248125 -0.0226486 0 0 Z " fill="#FAFAFA" transform="translate(694.6875,471.6875)"/>
<path d="M0 0 C5.61 0 11.22 0 17 0 C18.08796875 2.12695312 19.1759375 4.25390625 20.296875 6.4453125 C28.65113136 22.75177523 37.09765113 38.98402769 46 55 C46.47373047 55.85335937 46.94746094 56.70671875 47.43554688 57.5859375 C48.62299787 59.72434855 49.81114914 61.86236699 51 64 C51.36125977 63.2972998 51.72251953 62.59459961 52.09472656 61.87060547 C59.77197889 46.9550088 67.58867529 32.13688754 75.66894531 17.43457031 C78.83113112 11.6507631 81.91036175 5.82277979 85 0 C90.61 0 96.22 0 102 0 C92.51207479 19.35536744 82.22060179 38.2861858 71.52661133 57.00024414 C70.52409591 58.7566564 69.537787 60.52240905 68.56713867 62.29663086 C67 65 67 65 65.09887695 67.59594727 C57.48974688 78.95495266 58.99888677 92.14978951 59.0625 105.3125 C59.0493737 107.80665919 59.03312524 110.30080401 59.01367188 112.79492188 C58.9730727 118.86371352 58.97487607 124.93113908 59 131 C53.72 131 48.44 131 43 131 C43.08809937 128.93395508 43.08809937 128.93395508 43.17797852 126.82617188 C44.25020418 97.94050106 43.66423221 75.50745837 27.16357422 51.25537109 C24.01210663 46.51358946 21.39506076 41.53537834 18.75 36.5 C17.8161789 34.78445069 16.8786946 33.07089013 15.9375 31.359375 C15.46957031 30.50537109 15.00164062 29.65136719 14.51953125 28.77148438 C13.4235778 26.7725667 12.32716722 24.77389964 11.23046875 22.77539062 C9.39972206 19.43572324 7.5744947 16.0930861 5.75 12.75 C5.17604492 11.70650391 4.60208984 10.66300781 4.01074219 9.58789062 C3.48641602 8.62560547 2.96208984 7.66332031 2.421875 6.671875 C1.95362305 5.8169043 1.48537109 4.96193359 1.00292969 4.08105469 C0 2 0 2 0 0 Z " fill="#FAFAFA" transform="translate(1322,474)"/>
<path d="M0 0 C5.56818182 0.56818182 5.56818182 0.56818182 7 2 C6.63169251 8.99566809 4.90621195 14.69048494 2.30859375 21.15625 C1.9320314 22.11901855 1.55546906 23.08178711 1.16749573 24.07373047 C-0.06573007 27.21990044 -1.31407963 30.35983212 -2.5625 33.5 C-3.43270899 35.71247071 -4.30183569 37.92536739 -5.16992188 40.13867188 C-6.93353374 44.63106851 -8.70274663 49.1211908 -10.47705078 53.609375 C-13.69237976 61.74598957 -16.8698203 69.89723375 -20.04504395 78.04956055 C-21.01026926 80.52635117 -21.97704486 83.00253109 -22.94433594 85.47851562 C-30.525992 104.88646328 -38.04902045 124.31714819 -45.57666016 143.74609375 C-47.97070273 149.92485809 -50.36602351 156.10312629 -52.76171875 162.28125 C-53.15357864 163.29189514 -53.54543854 164.30254028 -53.94917297 165.34381104 C-55.91164553 170.40498957 -57.87477581 175.46591139 -59.83911133 180.52636719 C-63.56175135 190.11859557 -67.27754528 199.7133364 -70.97277832 209.31616211 C-72.72390059 213.86572935 -74.47839251 218.41399368 -76.2331543 222.9621582 C-77.07094518 225.13647499 -77.90707351 227.31143318 -78.74145508 229.48706055 C-79.89638623 232.4982062 -81.05695961 235.50712051 -82.21875 238.515625 C-82.55849854 239.40594421 -82.89824707 240.29626343 -83.24829102 241.21356201 C-86.55961535 249.75543491 -86.55961535 249.75543491 -89 253 C-92.0625 253.4375 -92.0625 253.4375 -95 253 C-95.66 252.34 -96.32 251.68 -97 251 C-96.70068301 245.00881695 -94.61372064 239.84973708 -92.4140625 234.3203125 C-92.04570282 233.37658783 -91.67734314 232.43286316 -91.29782104 231.46054077 C-90.080396 228.34596303 -88.85262608 225.23556943 -87.625 222.125 C-86.76287955 219.92413833 -85.90156492 217.72296085 -85.04101562 215.52148438 C-83.25214714 210.94701063 -81.4598141 206.37391721 -79.66503906 201.80175781 C-75.97171372 192.38546594 -72.32055822 182.9528941 -68.66937256 173.52020264 C-66.69827784 168.4293482 -64.7239641 163.33974237 -62.75 158.25 C-61.95831818 156.20833921 -61.1666515 154.16667255 -60.375 152.125 C-55.625 139.875 -55.625 139.875 -54.43751526 136.81254578 C-53.64579195 134.77072876 -52.85407443 132.72890951 -52.06236267 130.68708801 C-50.08410989 125.58520331 -48.10575702 120.48335746 -46.12719727 115.3815918 C-42.15418805 105.13676543 -38.18287754 94.89128581 -34.21484375 84.64453125 C-30.674227 75.50189486 -27.12940825 66.36089898 -23.5799408 57.22169495 C-21.53373871 51.95284721 -19.48964041 46.68319866 -17.44921875 41.41210938 C-15.35095189 35.99215558 -13.24739905 30.57428068 -11.14016724 25.1578064 C-10.34344441 23.10727971 -9.54855912 21.05603802 -8.75558472 19.00405884 C-7.66357043 16.17915825 -6.56504075 13.35687805 -5.46484375 10.53515625 C-4.98029724 9.27490631 -4.98029724 9.27490631 -4.48596191 7.98919678 C-2.22816992 2.22816992 -2.22816992 2.22816992 0 0 Z " fill="#6AB2E4" transform="translate(341,413)"/>
<path d="M0 0 C2.63681512 1.68623914 4.95131475 3.70160124 7.3125 5.75 C8.7337709 6.94497917 10.15701173 8.13761858 11.58203125 9.328125 C12.31115723 9.93978516 13.0402832 10.55144531 13.79150391 11.18164062 C17.28371872 14.05694639 20.88850972 16.77713353 24.5 19.5 C30.86079742 24.31737399 37.08468126 29.27601175 43.25732422 34.33154297 C48.36156374 38.50428726 53.55257054 42.54320736 58.79296875 46.54296875 C63.38034674 50.04664748 67.90822937 53.62590487 72.44140625 57.19921875 C74.85985602 59.10549475 77.2847884 61.00307345 79.71484375 62.89453125 C85.96399725 67.76554758 92.13541467 72.66359161 98 78 C97.73039354 81.46199204 97.19536126 82.79958629 94.734375 85.32421875 C93.74953125 86.10410156 92.7646875 86.88398437 91.75 87.6875 C91.2142334 88.11683838 90.6784668 88.54617676 90.12646484 88.98852539 C88.42910356 90.34104083 86.71718606 91.67277253 85 93 C84.46729492 93.41443359 83.93458984 93.82886719 83.38574219 94.25585938 C80.71141052 96.3338762 78.02577668 98.39644415 75.33203125 100.44921875 C71.96666785 103.01739258 68.63684149 105.62904922 65.3125 108.25 C59.89138887 112.52124802 54.45050829 116.76633335 49 121 C40.72598595 127.428373 32.48095525 133.89269597 24.25146484 140.37792969 C21.32729207 142.68211656 18.40092004 144.98333973 15.46875 147.27734375 C13.10207511 149.1293204 10.75069716 150.99888898 8.40625 152.87890625 C7.2501913 153.79451242 6.09394827 154.70988592 4.9375 155.625 C3.91527344 156.44226563 2.89304687 157.25953125 1.83984375 158.1015625 C-0.94247962 159.96154758 -2.68661789 160.76950385 -6 161 C-7.875 159.875 -7.875 159.875 -9 158 C-8.77898998 154.82692752 -8.27288474 153.31428391 -6.171875 150.89453125 C-0.39839427 145.93120024 5.51374356 141.19273332 11.58203125 136.59765625 C15.06589479 133.95951683 18.50534018 131.26740987 21.9375 128.5625 C22.80906738 127.87631592 22.80906738 127.87631592 23.69824219 127.17626953 C24.87695357 126.24809133 26.05550151 125.31970554 27.23388672 124.39111328 C30.15371048 122.09125763 33.07701893 119.79584055 36 117.5 C37.16668361 116.5833549 38.33335027 115.66668823 39.5 114.75 C41.83333333 112.91666667 44.16666667 111.08333333 46.5 109.25 C47.07766113 108.79608887 47.65532227 108.34217773 48.25048828 107.87451172 C49.41539177 106.95930007 50.58043053 106.04426056 51.74560547 105.12939453 C54.69039045 102.81686979 57.63265185 100.50125766 60.5703125 98.1796875 C67.96625373 92.34083978 75.43154068 86.61396708 83 81 C81.45141261 76.85469595 78.74633698 75.02564213 75.25 72.4375 C74.0657927 71.55029752 72.88222008 70.66224739 71.69921875 69.7734375 C71.08739746 69.31678711 70.47557617 68.86013672 69.84521484 68.38964844 C66.88254466 66.15843401 63.97299742 63.86110351 61.0625 61.5625 C59.88677805 60.63664344 58.71099647 59.7108626 57.53515625 58.78515625 C56.95137207 58.32512207 56.36758789 57.86508789 55.76611328 57.39111328 C52.84628958 55.09125768 49.92300912 52.79580474 47 50.5 C43.54570963 47.78663406 40.09183949 45.07274644 36.640625 42.35546875 C30.11013959 37.21573486 23.562324 32.09903299 17 27 C13.99956998 24.66721914 10.99964023 22.33379631 8 20 C7.30148926 19.45682129 6.60297852 18.91364258 5.88330078 18.35400391 C3.94127818 16.8424032 2.00152569 15.32794214 0.0625 13.8125 C-0.51048828 13.36712891 -1.08347656 12.92175781 -1.67382812 12.46289062 C-7.46977842 7.92355318 -7.46977842 7.92355318 -9 6 C-8.8125 2.875 -8.8125 2.875 -8 0 C-4.94733682 -1.52633159 -3.27474367 -0.90602521 0 0 Z " fill="#6BB2E4" transform="translate(365,460)"/>
<path d="M0 0 C2.8125 0.75 2.8125 0.75 3.8125 1.75 C3.85011288 5.15187601 3.7407133 7.71695245 1.39013672 10.33300781 C-0.59823273 11.94766346 -2.64187461 13.4200998 -4.75 14.875 C-6.31036471 16.00667678 -7.86891586 17.14085771 -9.42578125 18.27734375 C-10.22064941 18.85081543 -11.01551758 19.42428711 -11.83447266 20.01513672 C-15.47254917 22.69745377 -18.95298286 25.56024664 -22.4375 28.4375 C-28.66170076 33.53812794 -34.98080445 38.48104023 -41.37841797 43.36328125 C-44.9746388 46.11989857 -48.54887085 48.90490061 -52.125 51.6875 C-52.89336182 52.28522217 -53.66172363 52.88294434 -54.45336914 53.4987793 C-59.70979208 57.59131581 -64.95289801 61.70041501 -70.18212891 65.82763672 C-73.07171376 68.10415067 -75.9761901 70.35778005 -78.90625 72.58203125 C-79.81056763 73.26990723 -79.81056763 73.26990723 -80.7331543 73.97167969 C-81.88303137 74.84429609 -83.03541787 75.71361883 -84.19067383 76.57910156 C-87.14618823 78.76074345 -87.14618823 78.76074345 -89.1875 81.75 C-88.6006543 82.02674561 -88.01380859 82.30349121 -87.40917969 82.58862305 C-85.29781717 83.692332 -83.5287822 84.88597537 -81.640625 86.33203125 C-80.96870117 86.84531982 -80.29677734 87.3586084 -79.60449219 87.88745117 C-78.53183105 88.71660034 -78.53183105 88.71660034 -77.4375 89.5625 C-76.68887695 90.13782471 -75.94025391 90.71314941 -75.16894531 91.3059082 C-69.34577705 95.80290554 -63.62519642 100.41772132 -57.93310547 105.07885742 C-52.82680087 109.25404211 -47.63277157 113.29425077 -42.390625 117.296875 C-33.42841662 124.14254708 -24.59836576 131.16636859 -15.82641602 138.25366211 C-12.63684476 140.82414281 -9.42050508 143.33844982 -6.12890625 145.77734375 C-5.47792969 146.26654297 -4.82695312 146.75574219 -4.15625 147.25976562 C-2.91472784 148.18963519 -1.66374676 149.1070491 -0.40234375 150.00976562 C3.70495074 153.10934019 3.70495074 153.10934019 4.265625 156.44921875 C3.8125 158.75 3.8125 158.75 2.625 160.625 C0.8125 161.75 0.8125 161.75 -1.33203125 161.69140625 C-5.5303299 160.30728864 -8.35691641 157.65665677 -11.6875 154.8125 C-13.12124712 153.61711047 -14.55615747 152.42311483 -15.9921875 151.23046875 C-16.70213867 150.6379834 -17.41208984 150.04549805 -18.14355469 149.43505859 C-20.98279331 147.09434849 -23.88681884 144.857 -26.8125 142.625 C-31.27541756 139.21865479 -35.71347938 135.78515228 -40.125 132.3125 C-40.70942871 131.85254639 -41.29385742 131.39259277 -41.89599609 130.91870117 C-43.66017685 129.5295729 -45.4238689 128.13982602 -47.1875 126.75 C-55.60002377 120.12401335 -64.03512404 113.52815853 -72.49267578 106.9597168 C-76.05680182 104.19028938 -79.61733446 101.41668729 -83.1640625 98.625 C-84.08602417 97.89941895 -84.08602417 97.89941895 -85.02661133 97.15917969 C-86.19763385 96.23516847 -87.36681226 95.3088143 -88.53393555 94.37988281 C-92.17178391 91.49556943 -95.89057186 88.81333266 -99.83203125 86.359375 C-102.14930234 83.60803296 -102.20643846 81.26876642 -102.1875 77.75 C-100.1171875 75.23046875 -100.1171875 75.23046875 -97.0625 72.9375 C-96.24531494 72.30702759 -96.24531494 72.30702759 -95.41162109 71.66381836 C-94.26093625 70.78000426 -93.10198986 69.90685535 -91.93554688 69.04394531 C-90.26700949 67.80885479 -88.62268939 66.54824456 -86.984375 65.2734375 C-84.84272291 63.6089205 -82.6930487 61.95590899 -80.53515625 60.3125 C-77.08191487 57.6772116 -73.66288625 54.99975589 -70.25 52.3125 C-69.66879395 51.85496338 -69.08758789 51.39742676 -68.48876953 50.92602539 C-67.31024369 49.99789964 -66.13185851 49.06959524 -64.95361328 48.14111328 C-62.03378952 45.84125763 -59.11048107 43.54584055 -56.1875 41.25 C-55.02081639 40.3333549 -53.85414973 39.41668823 -52.6875 38.5 C-45.6875 33 -38.6875 27.5 -31.6875 22 C-31.10919434 21.54560547 -30.53088867 21.09121094 -29.93505859 20.62304688 C-28.77657519 19.71283304 -27.61804706 18.80267613 -26.45947266 17.89257812 C-23.4172195 15.50266497 -20.37591093 13.1115625 -17.3359375 10.71875 C-16.38847656 9.97334961 -16.38847656 9.97334961 -15.421875 9.21289062 C-14.21585731 8.26403848 -13.01011151 7.31484062 -11.8046875 6.36523438 C-10.26828495 5.1567668 -8.72805113 3.9531745 -7.1875 2.75 C-6.09888672 1.84507812 -6.09888672 1.84507812 -4.98828125 0.921875 C-3.1875 -0.25 -3.1875 -0.25 0 0 Z " fill="#6BB2E4" transform="translate(234.1875,459.25)"/>
<path d="M0 0 C37.57142857 0 37.57142857 0 45.7578125 7.640625 C51.77342387 14.32463763 52.54448952 20.40039866 52.31640625 29.2578125 C51.77484771 35.66291231 49.71564744 39.8554407 45.75 44.8125 C32.53909821 55.32117188 16.24415966 53 0 53 C0 35.51 0 18.02 0 0 Z " fill="#202A38" transform="translate(878,487)"/>
<path d="M0 0 C7.05375 -0.12375 7.05375 -0.12375 14.25 -0.25 C15.70696289 -0.28641602 17.16392578 -0.32283203 18.66503906 -0.36035156 C28.6190851 -0.44404438 37.92739356 0.62602764 46.0625 6.8125 C51.45858236 12.15593766 52.20917816 16.90027146 52.5 24.3125 C52.32871826 32.5503363 50.43034021 38.56965979 44.5625 44.4375 C37.21826251 48.91569359 31.42901188 50.13431202 22.8515625 50.09765625 C21.64838379 50.09515869 20.44520508 50.09266113 19.20556641 50.09008789 C16.93818604 50.07643188 16.93818604 50.07643188 14.625 50.0625 C9.79875 50.041875 4.9725 50.02125 0 50 C0 33.5 0 17 0 0 Z " fill="#202A38" transform="translate(1241,487)"/>
<path d="M0 0 C2.21538386 2.21538386 2.63202173 3.47722447 3.55859375 6.42578125 C3.85701172 7.35430908 4.15542969 8.28283691 4.46289062 9.23950195 C4.78451172 10.25359131 5.10613281 11.26768066 5.4375 12.3125 C9.08234164 23.57592849 13.18949616 34.61645436 17.49389648 45.63989258 C18.17754272 47.40562622 18.17754272 47.40562622 18.875 49.20703125 C19.28492188 50.2535083 19.69484375 51.29998535 20.1171875 52.37817383 C21 55 21 55 21 58 C7.47 58 -6.06 58 -20 58 C-19.18932458 53.13594748 -18.05981096 49.12100182 -16.26953125 44.609375 C-15.86255508 43.56162399 -15.86255508 43.56162399 -15.44735718 42.4927063 C-14.87035895 41.00758113 -14.29103813 39.52335653 -13.70956421 38.03997803 C-12.21191048 34.21684687 -10.73312619 30.38648657 -9.2578125 26.5546875 C-8.97046738 25.80845123 -8.68312225 25.06221497 -8.3870697 24.29336548 C-5.31838316 16.28395755 -2.55417979 8.18737082 0 0 Z " fill="#232C3A" transform="translate(1737,491)"/>
<path d="M0 0 C2.21538386 2.21538386 2.63202173 3.47722447 3.55859375 6.42578125 C3.85701172 7.35430908 4.15542969 8.28283691 4.46289062 9.23950195 C4.78451172 10.25359131 5.10613281 11.26768066 5.4375 12.3125 C9.08234164 23.57592849 13.18949616 34.61645436 17.49389648 45.63989258 C18.17754272 47.40562622 18.17754272 47.40562622 18.875 49.20703125 C19.28492188 50.2535083 19.69484375 51.29998535 20.1171875 52.37817383 C21 55 21 55 21 58 C7.47 58 -6.06 58 -20 58 C-19.18932458 53.13594748 -18.05981096 49.12100182 -16.26953125 44.609375 C-15.86255508 43.56162399 -15.86255508 43.56162399 -15.44735718 42.4927063 C-14.87035895 41.00758113 -14.29103813 39.52335653 -13.70956421 38.03997803 C-12.21191048 34.21684687 -10.73312619 30.38648657 -9.2578125 26.5546875 C-8.97046738 25.80845123 -8.68312225 25.06221497 -8.3870697 24.29336548 C-5.31838316 16.28395755 -2.55417979 8.18737082 0 0 Z " fill="#232C3A" transform="translate(1482,491)"/>
<path d="M0 0 C2.42437106 2.42437106 2.72152511 4.03823499 3.640625 7.33203125 C5.41420501 13.3051131 7.46827885 19.12165171 9.671875 24.94921875 C10.00127075 25.8207962 10.3306665 26.69237366 10.67004395 27.59036255 C11.69377618 30.29052875 12.72132236 32.98921428 13.75 35.6875 C14.79525176 38.43194726 15.83927296 41.17682877 16.87921143 43.92329407 C17.52150743 45.61947508 18.16686494 47.31450066 18.81561279 49.00822449 C21 54.77486741 21 54.77486741 21 57 C7.47 57 -6.06 57 -20 57 C-18.87511283 50.25067698 -18.87511283 50.25067698 -17.66479492 47.02099609 C-17.39749069 46.29939301 -17.13018646 45.57778992 -16.8547821 44.83432007 C-16.5662587 44.07172882 -16.27773529 43.30913757 -15.98046875 42.5234375 C-15.68062576 41.71693756 -15.38078278 40.91043762 -15.07185364 40.07949829 C-14.11546422 37.50941012 -13.15190842 34.94208863 -12.1875 32.375 C-10.92816326 29.00886246 -9.67217221 25.64149075 -8.41796875 22.2734375 C-8.11680145 21.46670593 -7.81563416 20.65997437 -7.50534058 19.82879639 C-5.44147266 14.27239906 -3.51590401 8.69091424 -1.7199707 3.04150391 C-1 1 -1 1 0 0 Z " fill="#232C3A" transform="translate(1149,492)"/>
<path d="M0 0 C2.42437106 2.42437106 2.72152511 4.03823499 3.640625 7.33203125 C5.41420501 13.3051131 7.46827885 19.12165171 9.671875 24.94921875 C10.00127075 25.8207962 10.3306665 26.69237366 10.67004395 27.59036255 C11.69377618 30.29052875 12.72132236 32.98921428 13.75 35.6875 C14.79525176 38.43194726 15.83927296 41.17682877 16.87921143 43.92329407 C17.52150743 45.61947508 18.16686494 47.31450066 18.81561279 49.00822449 C21 54.77486741 21 54.77486741 21 57 C7.47 57 -6.06 57 -20 57 C-18.87511283 50.25067698 -18.87511283 50.25067698 -17.66479492 47.02099609 C-17.39749069 46.29939301 -17.13018646 45.57778992 -16.8547821 44.83432007 C-16.5662587 44.07172882 -16.27773529 43.30913757 -15.98046875 42.5234375 C-15.68062576 41.71693756 -15.38078278 40.91043762 -15.07185364 40.07949829 C-14.11546422 37.50941012 -13.15190842 34.94208863 -12.1875 32.375 C-10.92816326 29.00886246 -9.67217221 25.64149075 -8.41796875 22.2734375 C-8.11680145 21.46670593 -7.81563416 20.65997437 -7.50534058 19.82879639 C-5.44147266 14.27239906 -3.51590401 8.69091424 -1.7199707 3.04150391 C-1 1 -1 1 0 0 Z " fill="#232C3A" transform="translate(583,492)"/>
</svg>
