<svg xmlns="http://www.w3.org/2000/svg" width="888" height="500" preserveAspectRatio="xMidYMid meet" version="1.0" viewBox="0 0 666 375"><g fill="#000" stroke="none"><path d="M1168 2328 c-9 -7 -30 -53 -48 -103 -18 -49 -38 -103 -46 -120 -12 -28 -40 -99 -139 -355 -72 -183 -106 -284 -103 -304 2 -10 11 -24 20 -30 27 -16 50 15 86 114 29 79 63 166 178 460 101 257 120 316 105 334 -16 19 -32 20 -53 4z m-3 -144 c-26 -65 -69 -175 -95 -244 -27 -69 -70 -179 -95 -245 -81 -212 -100 -255 -112 -255 -19 0 -16 20 16 101 41 103 129 329 191 489 113 293 115 299 132 282 5 -5 -10 -58 -37 -128z" transform="translate(0.000000,375.000000) scale(0.100000,-0.100000)"/><path d="M725 2125 c-204 -161 -276 -219 -286 -231 -15 -19 1 -43 61 -89 29 -22 98 -76 154 -120 114 -91 147 -115 158 -115 12 0 38 31 38 45 0 10 -178 160 -298 250 -11 9 9 29 95 95 211 165 222 177 191 208 -21 21 -41 13 -113 -43z m99 10 c-3 -7 -24 -26 -48 -43 -24 -17 -61 -46 -83 -64 -22 -18 -75 -60 -117 -92 -42 -33 -75 -60 -73 -61 55 -45 135 -108 219 -174 95 -74 119 -101 88 -101 -21 0 -345 258 -345 275 0 19 336 284 352 278 6 -3 10 -10 7 -18z" transform="translate(0.000000,375.000000) scale(0.100000,-0.100000)"/><path d="M1222 2168 c-27 -27 -8 -49 143 -168 85 -68 155 -124 155 -125 0 -1 -55 -45 -122 -98 -187 -145 -192 -150 -184 -174 4 -11 15 -23 26 -26 19 -5 36 6 135 83 18 14 59 45 91 70 104 79 164 132 164 145 0 12 -71 77 -150 137 -19 15 -75 59 -125 97 -91 72 -111 81 -133 59z m221 -157 c86 -69 157 -130 157 -136 0 -16 -330 -275 -350 -275 -26 0 0 32 76 91 45 35 116 91 159 124 l77 60 -25 20 c-13 11 -71 56 -127 100 -144 112 -174 140 -166 153 9 15 -4 24 199 -137z" transform="translate(0.000000,375.000000) scale(0.100000,-0.100000)"/></g></svg>