<?xml version="1.0" standalone="no"?>
<!DOCTYPE svg PUBLIC "-//W3C//DTD SVG 20010904//EN"
 "http://www.w3.org/TR/2001/REC-SVG-20010904/DTD/svg10.dtd">
<svg version="1.0" xmlns="http://www.w3.org/2000/svg"
 width="720.000000pt" height="720.000000pt" viewBox="0 0 720.000000 720.000000"
 preserveAspectRatio="xMidYMid meet">

<g transform="translate(0.000000,720.000000) scale(0.100000,-0.100000)"
fill="#000000" stroke="none">
<path d="M0 3600 l0 -3600 3600 0 3600 0 0 1460 0 1460 -54 25 c-126 58 -237
98 -319 115 -108 24 -138 38 -154 71 -9 18 -31 34 -70 50 -66 26 -91 42 -186
118 -66 53 -68 55 -45 64 12 6 27 9 31 8 5 -1 -12 19 -37 45 -25 25 -46 50
-46 55 0 4 -16 25 -36 46 -19 21 -44 54 -55 73 -11 19 -31 53 -44 75 -13 22
-24 54 -24 70 -1 23 -4 27 -11 15 -8 -12 -10 -9 -10 13 0 15 -5 35 -11 45 -5
9 -18 44 -29 77 -16 52 -18 55 -19 27 -1 -29 -3 -31 -20 -20 -16 10 -23 9 -38
-4 -50 -44 -122 -59 -176 -39 -13 5 -34 26 -45 45 -12 20 -33 41 -47 48 -14 6
-25 19 -25 30 0 10 -7 18 -17 18 -10 0 -31 7 -47 15 -15 8 -44 15 -64 15 -19
0 -33 3 -30 6 7 7 250 6 328 -1 98 -9 139 -16 145 -26 4 -5 11 -9 17 -9 6 0 1
9 -12 20 -13 11 -26 20 -31 20 -4 0 -5 9 -2 20 3 12 0 20 -7 20 -9 0 -11 13
-6 48 3 26 3 40 -1 32 -3 -8 -22 -29 -41 -47 l-36 -32 -35 41 c-29 34 -34 47
-32 82 4 63 -28 102 -130 156 -84 45 -129 80 -129 101 0 6 19 -3 43 -21 l42
-31 3 25 c5 36 -11 60 -56 81 -28 14 -38 24 -34 37 8 33 -34 21 -59 -17 -24
-35 -25 -35 -79 -29 -30 4 -58 8 -62 11 -13 7 -9 51 5 65 20 20 40 114 34 158
-3 21 -12 53 -21 71 -9 18 -16 38 -16 46 0 8 -12 34 -26 58 -14 25 -22 50 -18
56 4 8 3 9 -4 5 -6 -4 -22 0 -34 8 -113 74 -453 79 -633 10 -8 -3 -15 -2 -15
4 0 17 112 41 242 52 121 11 305 3 351 -15 10 -4 17 -3 17 4 0 6 -4 11 -9 11
-10 0 -41 73 -41 98 0 15 -15 17 -141 20 -116 3 -153 0 -217 -17 -118 -32
-131 -33 -82 -10 25 11 80 28 122 37 60 13 75 19 66 29 -7 9 -5 27 8 64 l19
51 -45 40 c-31 28 -51 38 -67 35 -13 -2 -23 -1 -23 4 0 12 60 23 106 20 23 -1
45 2 48 8 4 6 14 3 26 -9 24 -24 99 -30 125 -10 6 4 37 11 70 15 33 4 63 12
67 18 5 8 18 9 45 1 35 -9 47 -6 126 30 48 23 87 45 87 50 0 4 -7 5 -16 2 -9
-3 -75 -8 -147 -11 -140 -6 -141 -5 -27 39 36 14 81 33 100 43 28 14 59 18
150 18 114 1 116 1 187 39 72 38 89 58 77 90 -7 18 -29 21 -39 5 -5 -7 -14 -4
-26 7 -17 16 -19 16 -19 1 0 -10 -4 -17 -10 -17 -5 0 -10 7 -10 16 0 8 -5 12
-10 9 -15 -9 -2 -46 22 -67 17 -15 18 -19 5 -24 -9 -3 -25 3 -37 14 -11 10
-33 25 -48 33 -15 8 -30 18 -33 22 -3 5 -33 11 -66 14 -56 5 -64 3 -106 -26
-51 -35 -72 -41 -36 -11 19 16 21 21 10 29 -11 7 -11 10 0 15 14 6 0 3 -71
-14 -49 -12 -176 -24 -169 -16 4 4 40 13 80 20 l74 14 -62 2 c-35 1 -71 3 -80
4 -10 0 -21 7 -25 16 -6 13 -7 13 -7 -1 -1 -16 -33 -59 -45 -59 -4 0 -2 10 5
21 12 23 14 24 -51 -16 -34 -21 -102 -44 -88 -29 5 4 31 19 60 33 28 14 53 32
56 39 2 8 -9 5 -30 -8 -41 -25 -49 -25 -42 -2 5 14 4 14 -4 2 -6 -8 -9 -17 -6
-21 2 -4 -4 -10 -14 -13 -10 -4 -28 -20 -41 -36 -24 -33 -73 -67 -171 -118
l-65 -33 35 30 c19 17 38 31 42 31 8 0 38 53 38 66 0 3 -6 1 -14 -5 -11 -9
-15 -7 -19 9 -3 12 1 24 11 30 29 17 -5 11 -63 -11 -31 -12 -66 -18 -77 -15
-14 3 -35 -5 -62 -25 -23 -17 24 34 104 113 80 79 129 129 110 112 -45 -39
-90 -67 -90 -55 0 5 7 11 15 15 19 7 19 36 0 36 -9 0 -15 9 -15 25 0 20 -38
71 -46 62 -9 -9 10 -45 21 -41 14 6 16 -49 2 -63 -5 -4 -5 0 -1 10 10 26 -1
21 -46 -23 -57 -56 -70 -50 -15 6 25 26 45 50 45 54 0 3 -7 15 -15 26 -14 19
-14 19 -16 -1 -1 -11 -1 -24 0 -29 2 -9 -18 -26 -31 -26 -12 0 -8 62 6 103 10
28 11 37 2 37 -7 0 -12 15 -13 34 -1 23 3 33 11 30 12 -5 89 92 139 176 15 25
32 52 37 60 5 8 23 44 40 80 17 36 35 72 40 80 4 8 19 39 31 68 13 28 27 52
31 52 5 0 8 9 8 21 0 15 4 19 16 15 9 -3 20 -6 25 -6 5 0 9 -6 9 -14 0 -8 6
-16 14 -19 16 -6 26 12 26 45 0 12 3 19 6 15 10 -10 -15 -148 -42 -230 -34
-101 -113 -257 -192 -376 -34 -51 -62 -95 -62 -97 0 -2 8 0 17 3 13 5 15 2 10
-11 -4 -9 -3 -15 2 -12 7 5 13 23 27 85 3 15 64 94 76 99 4 2 8 8 8 13 0 10
66 103 92 130 7 8 44 53 82 102 38 48 71 87 74 87 10 0 -9 -168 -27 -236 -19
-74 -34 -109 -71 -169 -19 -31 -19 -34 -4 -28 11 4 15 2 11 -4 -4 -6 2 -18 13
-28 11 -10 20 -24 20 -32 0 -7 4 -13 9 -13 5 0 5 15 1 35 -9 40 -1 44 38 15
15 -11 48 -22 74 -25 40 -4 50 -1 65 18 23 29 48 39 79 31 15 -4 24 -13 24
-26 0 -15 6 -19 28 -16 21 2 26 8 24 25 -4 29 15 38 44 22 29 -15 32 -39 4
-39 -11 0 -20 -5 -20 -11 0 -7 12 -10 30 -7 17 3 30 0 30 -5 0 -12 152 -2 284
18 143 22 335 85 430 141 32 19 60 33 63 31 5 -6 -63 -122 -101 -172 -16 -22
-73 -84 -125 -137 -85 -88 -92 -98 -69 -98 15 0 28 -6 31 -12 8 -25 202 -6
202 19 0 19 9 21 53 13 23 -4 44 -4 47 -1 2 4 16 7 32 6 25 0 28 -4 26 -30 -2
-23 0 -26 7 -15 9 13 11 13 20 0 21 -33 -2 -108 -44 -141 -15 -12 -23 -26 -19
-34 3 -10 -2 -15 -16 -15 -14 0 -21 -6 -21 -19 0 -11 -4 -22 -9 -26 -10 -6
-26 13 -26 30 0 6 -10 11 -23 13 -12 2 -20 8 -16 13 3 5 -25 -13 -62 -41 -37
-27 -71 -50 -75 -50 -5 0 -9 -12 -9 -27 0 -28 -20 -71 -20 -45 0 6 -6 12 -12
12 -12 0 -14 -15 -18 -159 -1 -35 9 -55 17 -33 4 10 8 9 18 -5 10 -13 16 -15
26 -6 16 12 119 13 119 1 0 -4 8 -8 18 -8 10 0 22 -3 26 -7 13 -13 50 -9 62 7
16 21 26 154 14 184 -5 14 -16 26 -24 26 -24 0 -27 28 -4 36 16 5 27 0 43 -20
11 -14 30 -26 42 -26 43 0 53 -10 53 -55 0 -24 4 -47 10 -50 6 -3 10 2 10 13
0 15 6 18 32 14 27 -4 29 -6 14 -12 -13 -4 -16 -9 -8 -14 6 -4 24 3 40 14 21
15 36 19 56 14 27 -6 27 -7 6 -21 -11 -8 -29 -15 -40 -16 -30 -2 -24 -20 12
-36 38 -17 134 -24 157 -12 9 5 43 11 76 15 33 3 49 2 35 -2 -44 -14 -100 -42
-100 -51 0 -11 84 -23 105 -15 8 4 15 1 15 -5 0 -6 -6 -11 -13 -11 -7 0 -31
-9 -54 -20 -35 -16 -40 -23 -35 -45 5 -29 22 -44 22 -21 0 9 5 16 11 16 24 0
2 -35 -26 -42 -19 -5 -11 -5 22 -2 39 3 55 1 68 -12 13 -14 18 -15 25 -4 6 10
20 11 67 2 32 -7 67 -10 78 -7 11 2 32 6 48 10 l27 5 0 1090 0 1090 -3600 0
-3600 0 0 -3600z m3521 3147 c-10 -9 -11 -8 -5 6 3 10 9 15 12 12 3 -3 0 -11
-7 -18z m39 -27 c-6 -12 -14 -19 -17 -17 -2 3 1 15 7 27 6 12 14 19 17 17 2
-3 -1 -15 -7 -27z m367 -74 c-10 -131 -84 -287 -170 -361 -54 -46 -63 -34 -11
14 54 49 79 89 76 117 -2 12 6 54 18 93 12 39 28 106 35 148 l13 78 0 -65 c-1
-35 -5 -78 -9 -94 -6 -22 -6 -27 3 -18 6 6 15 52 21 102 13 110 33 99 24 -14z
m124 82 c11 -21 11 -22 -4 -9 -10 7 -17 17 -17 22 0 15 9 10 21 -13z m-447
-20 c-3 -12 -13 -28 -20 -36 -8 -7 -14 -18 -14 -23 0 -5 -4 -9 -10 -9 -5 0 3
20 18 45 30 50 37 56 26 23z m253 -12 c-3 -8 -9 -31 -13 -50 -8 -46 -26 -59
-18 -14 11 67 15 78 25 78 6 0 9 -6 6 -14z m-1377 -261 c49 -103 135 -241 202
-328 27 -33 30 -46 34 -125 5 -123 7 -135 27 -150 9 -7 17 -18 17 -24 0 -6
-11 -1 -25 12 -13 12 -22 26 -20 31 7 10 -15 109 -24 109 -4 0 -17 -9 -30 -21
-12 -12 -24 -19 -25 -18 -120 153 -247 371 -292 504 -17 51 -44 215 -35 215 2
0 12 -7 22 -16 25 -23 39 -9 40 39 0 41 1 40 28 -38 16 -44 52 -129 81 -190z
m-120 214 c0 -5 -4 -9 -10 -9 -5 0 -10 7 -10 16 0 8 5 12 10 9 6 -3 10 -10 10
-16z m1296 -5 c-5 -14 -4 -15 9 -4 11 9 22 9 46 1 19 -6 37 -7 43 -2 6 5 22
12 35 16 23 7 24 6 17 -36 -19 -128 -93 -282 -168 -351 -54 -51 -33 -48 34 4
l53 42 -40 -50 c-51 -64 -51 -63 -115 -111 -57 -42 -98 -65 -138 -78 -21 -6
-22 -4 -16 19 5 20 2 26 -10 26 -34 0 -13 16 49 38 77 28 85 43 17 29 -55 -12
-97 -3 -72 14 11 8 9 9 -8 4 -18 -5 -31 0 -53 21 -16 15 -29 32 -29 38 0 5 7
1 15 -10 12 -16 14 -17 15 -2 0 11 7 15 25 13 14 -1 28 2 31 6 3 5 27 9 54 9
46 0 80 17 80 41 0 5 12 2 28 -8 16 -10 22 -11 15 -3 -21 23 -15 33 17 27 17
-4 30 -2 30 3 0 6 -10 10 -22 11 l-23 0 23 9 c12 5 22 14 22 21 0 6 -7 9 -15
5 -8 -3 -15 -1 -15 4 0 6 5 10 10 10 6 0 10 6 10 14 0 10 -19 16 -62 21 -106
11 -105 10 -30 75 37 32 81 79 97 104 29 45 53 62 41 30z m319 -21 l16 -28 -4
28 c-2 15 -3 27 -1 27 11 0 90 -188 82 -194 -1 -2 -43 -7 -92 -11 -84 -7 -88
-6 -81 11 4 11 19 58 33 107 14 48 27 87 28 87 2 0 10 -12 19 -27z m-1599
-408 c40 -49 93 -112 118 -140 25 -27 46 -54 46 -60 0 -9 -101 82 -108 98 -13
26 -17 -4 -11 -75 l7 -83 68 -62 c37 -35 65 -65 62 -69 -6 -5 -61 44 -194 173
-86 83 -129 193 -150 378 l-6 60 48 -65 c26 -36 80 -105 120 -155z m1644 195
c21 -7 22 -8 5 -9 -65 -5 -132 -13 -143 -17 -8 -2 -12 1 -10 8 8 23 99 34 148
18z m-480 -22 c0 -12 -118 -10 -125 3 -5 7 15 9 59 8 36 -1 66 -6 66 -11z
m450 -43 c0 -8 -9 -15 -20 -15 -20 0 -26 11 -13 23 12 13 33 7 33 -8z m58 -7
c-2 -14 -11 -24 -23 -25 -11 -2 -14 0 -7 3 6 3 12 14 12 25 0 10 5 19 11 19 6
0 9 -10 7 -22z m-715 -8 c3 -11 1 -20 -4 -20 -5 0 -9 9 -9 20 0 11 2 20 4 20
2 0 6 -9 9 -20z m162 11 c3 -5 1 -13 -5 -16 -15 -9 -43 3 -35 15 8 13 32 13
40 1z m350 -31 c3 -11 14 -20 23 -20 14 0 13 2 -3 13 -17 13 -17 14 2 19 13 4
25 -1 34 -13 14 -19 65 -28 54 -9 -3 6 -2 10 4 10 5 0 18 3 28 7 16 6 16 5 4
-10 -12 -15 -11 -17 8 -17 15 0 20 -4 15 -12 -6 -10 -4 -10 7 0 17 16 29 15
29 -2 0 -35 -97 -92 -165 -97 -11 -1 -2 -5 20 -8 22 -4 45 -4 50 0 6 3 21 2
35 -2 14 -4 20 -7 14 -8 -16 -2 -41 -61 -54 -129 -11 -56 -17 -64 -78 -119
-78 -70 -141 -113 -164 -113 -26 0 -143 79 -208 140 -31 29 -70 91 -70 111 0
8 10 -1 21 -19 12 -18 24 -30 27 -27 3 2 -3 14 -13 25 -22 24 -16 31 48 54 72
27 190 111 255 182 31 34 60 63 64 63 4 1 10 -8 13 -19z m-455 -6 c0 -2 -7 -4
-15 -4 -8 0 -15 4 -15 10 0 5 7 7 15 4 8 -4 15 -8 15 -10z m77 -10 c-3 -3 -12
-4 -19 -1 -8 3 -5 6 6 6 11 1 17 -2 13 -5z m630 -28 c-20 -31 -97 -87 -109
-80 -5 3 3 14 20 24 16 10 38 29 49 44 11 14 24 22 28 18 5 -4 5 1 2 10 -4 12
-2 15 9 11 13 -5 13 -8 1 -27z m-1272 -41 c44 -9 109 -25 145 -37 74 -24 195
-82 205 -98 15 -24 -5 -20 -45 9 -41 29 -111 57 -160 63 -21 3 -25 -1 -22 -21
8 -53 20 -68 79 -92 75 -30 143 -68 143 -80 0 -13 -4 -12 -43 11 -37 22 -169
70 -189 69 -7 0 -3 -4 10 -9 29 -12 61 -86 69 -162 l6 -59 -29 12 c-49 21 -65
44 -94 131 l-28 83 27 6 c23 5 21 6 -17 13 -38 7 -45 13 -67 56 -13 26 -35 61
-49 78 -23 26 -31 42 -23 42 1 0 38 -7 82 -15z m1875 9 c0 -3 -13 -25 -28 -48
-15 -22 -36 -58 -46 -80 -10 -21 -26 -40 -35 -43 -11 -3 -25 -30 -40 -81 -12
-42 -26 -86 -31 -98 -8 -20 -123 -88 -132 -78 -11 10 35 184 56 212 14 19 -34
7 -106 -27 -32 -15 -58 -24 -58 -21 0 4 10 12 23 18 141 73 162 89 174 132 7
24 11 45 9 47 -10 10 -150 -42 -182 -68 -43 -34 -55 -38 -29 -9 26 28 90 62
176 94 107 39 249 67 249 50z m-3404 -228 c83 -27 299 -67 473 -87 99 -11 395
-7 542 7 49 5 57 3 62 -13 4 -10 14 -29 24 -42 17 -24 17 -24 -6 -12 -14 8
-21 9 -17 2 12 -19 128 -90 271 -166 38 -20 43 -25 20 -20 -35 8 -164 63 -184
79 -11 9 -12 5 -6 -24 11 -53 33 -88 63 -104 34 -18 70 -56 52 -56 -24 0 -150
91 -184 133 -18 23 -45 65 -59 92 -14 28 -26 43 -27 34 0 -9 -6 -17 -12 -16
-7 0 -28 -1 -46 -1 -29 -2 -31 -4 -23 -21 6 -10 32 -33 57 -50 26 -17 43 -31
37 -31 -6 0 -27 11 -47 25 -45 31 -49 31 -42 3 3 -13 -4 -2 -17 23 -21 43 -24
45 -52 37 -17 -4 -73 -8 -125 -8 -186 0 -273 -5 -277 -16 -4 -11 -41 -9 -73 3
-8 3 -22 5 -32 4 -9 -1 -72 10 -140 25 -160 34 -210 42 -223 37 -6 -2 -22 9
-36 24 -62 71 -118 142 -148 186 l-32 47 64 -34 c35 -19 99 -46 143 -60z
m1914 43 c0 -6 -4 -7 -10 -4 -5 3 -10 11 -10 16 0 6 5 7 10 4 6 -3 10 -11 10
-16z m1480 -40 c0 -16 -7 -59 -16 -95 -18 -71 -48 -107 -118 -145 -52 -27 -56
-18 -6 16 28 20 41 37 46 61 9 49 2 57 -27 30 -15 -14 -42 -32 -60 -41 -19 -9
-56 -27 -83 -41 -26 -14 -50 -23 -52 -21 -3 2 24 18 59 35 35 17 73 39 84 49
11 10 32 27 45 38 31 26 83 94 99 128 15 33 29 26 29 -14z m-1910 9 c0 -13 74
-105 105 -129 58 -47 69 -58 58 -59 -6 0 -25 11 -41 25 -45 37 -55 33 -50 -20
l5 -45 -27 20 c-15 10 -31 25 -37 32 -26 33 -47 208 -23 193 6 -3 10 -11 10
-17z m420 -68 c0 -5 -4 -10 -10 -10 -5 0 -10 5 -10 10 0 6 5 10 10 10 6 0 10
-4 10 -10z m743 -112 c4 -13 -14 -36 -55 -76 -57 -53 -158 -191 -158 -215 0
-6 22 22 50 63 53 80 157 197 166 187 3 -3 -11 -24 -32 -47 -48 -51 -61 -72
-40 -64 19 7 29 -11 17 -33 -6 -12 -5 -31 4 -55 10 -31 10 -41 -2 -58 -12 -18
-12 -19 3 -13 13 5 15 3 9 -7 -6 -10 -4 -12 8 -7 12 4 17 -4 23 -36 5 -23 9
-46 9 -52 0 -5 4 -16 9 -24 20 -31 -45 -47 -67 -17 -4 6 -6 -1 -4 -16 1 -15 6
-30 10 -34 4 -4 7 -14 7 -23 1 -42 16 -44 71 -8 52 34 99 54 99 43 0 -3 -19
-14 -42 -24 -24 -10 -60 -35 -80 -55 -44 -42 -50 -58 -12 -28 15 12 29 21 33
21 12 0 4 -129 -9 -145 -11 -13 -10 -15 6 -9 14 4 13 1 -6 -15 -14 -11 -28
-21 -31 -21 -4 0 -10 -7 -13 -16 -3 -8 -2 -13 3 -9 5 3 21 1 35 -5 38 -14 36
-65 -3 -108 -34 -37 -31 -41 10 -11 30 21 41 12 14 -11 -8 -7 -15 -22 -14 -34
0 -11 3 -15 6 -8 9 24 22 12 22 -20 -1 -18 2 -50 5 -70 3 -21 1 -38 -4 -38 -6
0 -10 -4 -10 -9 0 -12 73 -41 130 -52 38 -7 35 -7 -19 -3 -62 5 -127 30 -163
62 -16 14 -18 13 -18 -6 0 -19 93 -112 112 -112 5 0 8 -4 8 -9 0 -18 -75 2
-142 37 -38 20 -68 40 -68 44 0 4 -7 8 -15 8 -9 0 -15 -9 -15 -21 0 -12 -7
-36 -16 -55 -22 -46 -14 -51 25 -15 l32 30 -7 -37 c-7 -34 -34 -77 -34 -53 0
6 -5 11 -10 11 -6 0 -8 -10 -4 -24 3 -14 1 -32 -4 -42 -8 -15 -11 -13 -16 14
-4 17 -14 36 -22 43 -12 10 -14 6 -14 -25 0 -20 -5 -36 -11 -36 -14 0 -3 84
17 124 9 18 12 43 8 68 -6 32 -13 41 -39 52 -43 19 -75 61 -75 103 0 26 -5 36
-22 43 -21 8 -20 9 9 9 26 1 30 -2 26 -18 -3 -11 0 -36 7 -55 32 -99 153 -84
165 20 l5 39 -11 -35 c-11 -35 -45 -80 -61 -80 -4 0 -8 70 -8 155 0 136 2 155
18 164 13 8 7 10 -29 11 -33 0 -54 6 -70 21 -23 19 -23 20 -2 10 32 -16 53
-13 54 7 0 14 2 14 9 -3 6 -15 8 -6 8 30 0 28 -3 40 -5 28 -2 -13 -9 -23 -14
-23 -7 0 -8 20 -4 53 7 57 -9 117 -46 168 -12 17 -19 33 -16 35 3 3 14 -7 24
-23 10 -15 26 -37 35 -47 10 -11 18 -23 18 -28 0 -4 3 -8 8 -8 4 0 6 35 5 77
-1 67 -6 88 -36 148 -19 39 -53 94 -76 123 -23 29 -41 57 -39 63 4 13 78 -83
118 -154 42 -75 50 -67 9 9 -35 66 -62 104 -105 150 -16 17 -34 49 -40 72 -12
45 -11 45 41 7 65 -47 131 -56 180 -24 17 10 49 28 73 40 23 11 42 24 42 29 0
18 49 6 53 -12z m-2588 -27 c54 -52 188 -142 279 -188 48 -24 85 -47 82 -50
-7 -8 -117 47 -214 106 -71 43 -207 160 -187 161 5 0 23 -13 40 -29z m1520
-85 c14 -11 15 -14 4 -10 -12 4 -18 -2 -21 -20 -3 -14 -2 -24 2 -21 3 2 11
-14 17 -36 5 -21 9 -39 7 -39 -13 0 -58 78 -69 119 l-13 51 26 -14 c15 -8 36
-22 47 -30z m1484 -2 c30 -40 35 -44 50 -31 18 17 81 50 81 43 0 -2 -20 -17
-45 -33 -32 -20 -43 -33 -39 -45 10 -31 -15 -28 -54 7 -45 40 -64 105 -32 105
4 0 21 -21 39 -46z m276 16 c-8 -16 -15 -35 -15 -42 0 -7 -9 -26 -20 -43 l-20
-30 5 55 c4 40 11 60 26 73 32 26 41 21 24 -13z m-2715 13 c0 -5 23 -21 50
-37 60 -36 58 -47 -2 -16 -42 21 -80 60 -58 60 5 0 10 -3 10 -7z m97 1 c-3 -3
-12 -4 -19 -1 -8 3 -5 6 6 6 11 1 17 -2 13 -5z m103 -19 l65 -15 -63 5 c-35 3
-71 9 -80 15 -24 14 -2 12 78 -5z m637 -7 c-3 -8 -6 -5 -6 6 -1 11 2 17 5 13
3 -3 4 -12 1 -19z m224 -5 c13 -15 12 -15 -8 -4 -24 12 -29 21 -14 21 5 0 15
-7 22 -17z m231 -14 c3 -20 -2 -39 -14 -55 -27 -33 -38 -30 -27 9 8 29 29 77
35 77 1 0 4 -14 6 -31z m1485 4 c-1 -14 -8 -28 -15 -31 -7 -2 -10 3 -7 12 3 9
7 23 10 31 7 24 14 17 12 -12z m-137 8 c0 -5 -17 -15 -37 -21 -21 -7 -49 -19
-61 -27 -13 -8 -26 -12 -29 -9 -3 3 23 19 58 36 73 34 69 33 69 21z m-3517
-48 c117 -132 224 -210 364 -265 45 -18 80 -34 78 -36 -5 -5 -126 43 -200 81
-97 48 -153 95 -249 210 -58 68 -52 77 7 10z m130 17 c43 -5 102 -10 131 -10
40 0 62 -6 94 -27 48 -31 51 -40 20 -46 -15 -3 -14 -4 5 -2 15 1 32 -4 38 -12
14 -16 -4 -17 -161 -3 -149 14 -187 25 -214 67 -11 18 -27 33 -33 33 -7 0 -13
4 -13 10 0 5 12 7 28 5 15 -3 62 -9 105 -15z m1231 -45 c67 -17 103 -40 46
-29 -50 10 -152 57 -170 79 -10 13 -3 10 25 -8 22 -14 67 -33 99 -42z m363 43
c-3 -8 -6 -5 -6 6 -1 11 2 17 5 13 3 -3 4 -12 1 -19z m1503 -9 c0 -5 7 -9 15
-9 10 0 15 -10 15 -29 0 -17 5 -33 10 -36 25 -16 -2 -65 -36 -65 -20 0 -38 22
-59 69 -19 43 -20 75 -1 68 8 -3 17 1 20 8 5 15 36 10 36 -6z m-973 -59 c2
-38 -2 -60 -8 -60 -7 0 -9 10 -5 26 5 17 3 23 -4 19 -5 -3 -10 -13 -10 -21 0
-8 -4 -14 -10 -14 -5 0 -10 3 -10 6 0 13 35 104 40 104 3 0 6 -27 7 -60z
m-1122 40 c7 -12 -24 -12 -80 -1 -40 9 -40 9 17 10 31 0 60 -3 63 -9z m112 -6
c-3 -3 -12 -4 -19 -1 -8 3 -5 6 6 6 11 1 17 -2 13 -5z m503 -19 c13 -14 21
-27 18 -30 -2 -3 -17 9 -33 25 -16 17 -24 30 -19 30 6 0 21 -11 34 -25z m2010
15 c0 -5 -5 -10 -11 -10 -5 0 -7 5 -4 10 3 6 8 10 11 10 2 0 4 -4 4 -10z
m-2500 -30 c19 -5 62 -12 94 -15 76 -6 87 -17 16 -14 -30 1 -66 -1 -79 -6 -15
-4 -21 -4 -17 3 3 6 -13 17 -36 25 -48 17 -32 22 22 7z m1092 -95 l-8 -60 -15
45 c-15 43 -15 46 5 73 25 35 29 23 18 -58z m598 64 c-52 -41 -80 -60 -80 -54
0 12 84 74 100 74 3 0 -6 -8 -20 -20z m1407 15 c-3 -3 -12 -4 -19 -1 -8 3 -5
6 6 6 11 1 17 -2 13 -5z m-3252 -14 c29 -7 28 -8 -10 -8 -22 0 -51 4 -65 8
-23 7 -22 8 10 8 19 0 49 -4 65 -8z m3208 3 c-7 -2 -19 -2 -25 0 -7 3 -2 5 12
5 14 0 19 -2 13 -5z m-2881 -19 c-37 -16 -170 -31 -137 -15 11 5 40 10 65 11
25 1 54 5 65 10 11 5 25 9 30 8 6 0 -5 -6 -23 -14z m2517 -10 c17 -5 22 -4 17
4 -4 7 -1 12 8 12 9 0 15 -5 14 -11 -3 -13 16 -25 57 -36 27 -7 24 -8 -23 -11
-32 -2 -60 2 -68 9 -12 9 -24 1 -65 -45 -45 -48 -105 -96 -122 -96 -3 0 3 18
14 40 23 47 24 64 5 57 -8 -3 -32 -9 -53 -12 -71 -11 -11 12 90 35 53 12 97
24 97 26 0 3 -12 9 -26 14 -14 6 -22 15 -18 21 6 10 21 9 73 -7z m-2684 -4
c-3 -5 -10 -10 -16 -10 -5 0 -9 5 -9 10 0 6 7 10 16 10 8 0 12 -4 9 -10z
m1808 -45 c3 -22 2 -31 0 -20 -3 11 -9 24 -14 30 -5 5 -9 18 -9 29 0 35 19 4
23 -39z m71 -19 c9 -27 15 -50 13 -53 -6 -5 -36 60 -48 100 -15 52 16 11 35
-47z m-2364 34 c83 -42 204 -84 207 -73 3 7 10 10 18 7 7 -3 16 -1 20 5 15 26
126 4 235 -48 25 -11 59 -20 75 -20 40 1 178 -21 188 -31 5 -4 -11 -4 -35 1
-24 4 -59 8 -78 8 l-35 -1 38 -10 c20 -6 37 -14 37 -19 0 -5 9 -9 20 -9 11 0
20 -4 20 -9 0 -10 -24 -21 -48 -21 -8 0 -34 -8 -56 -19 -52 -23 -112 -40 -155
-43 -44 -4 -48 -18 -15 -57 14 -18 23 -35 19 -39 -4 -4 -14 4 -23 18 -19 29
-106 117 -179 178 -68 59 -132 100 -244 162 -86 47 -92 62 -9 20z m3530 26 c0
-3 -4 -8 -10 -11 -5 -3 -10 -1 -10 4 0 6 5 11 10 11 6 0 10 -2 10 -4z m-3031
-20 c-2 -2 -44 -6 -94 -9 -56 -3 -73 -2 -45 2 49 9 146 13 139 7z m126 -6 c-7
-12 -105 -13 -105 -2 0 5 25 9 55 10 34 1 53 -2 50 -8z m2747 -1 c2 -6 22 -15
43 -20 32 -7 25 -8 -33 -5 -76 4 -88 8 -77 25 8 15 62 14 67 0z m105 5 c-3 -3
-12 -4 -19 -1 -8 3 -5 6 6 6 11 1 17 -2 13 -5z m-2677 -35 c30 -10 43 -16 28
-14 -33 6 -35 -5 -13 -58 20 -47 19 -49 -10 -35 -14 6 -25 15 -25 20 0 4 -6 8
-13 8 -12 0 -44 30 -92 88 l-19 23 45 -7 c24 -4 69 -15 99 -25z m984 -50 c6
-31 5 -32 -9 -14 -8 11 -15 16 -14 10 1 -5 0 -19 -1 -30 -3 -27 -17 27 -19 73
-1 31 0 31 17 14 11 -11 22 -34 26 -53z m-1256 36 c2 -2 -30 -6 -72 -10 -76
-7 -106 -3 -106 14 0 8 169 4 178 -4z m72 -3 c-8 -3 -23 -11 -32 -20 -16 -13
-16 -13 -6 10 9 18 18 24 32 20 15 -4 17 -7 6 -10z m47 12 c-3 -3 -12 -4 -19
-1 -8 3 -5 6 6 6 11 1 17 -2 13 -5z m2658 -4 c3 -6 -1 -7 -9 -4 -18 7 -21 14
-7 14 6 0 13 -4 16 -10z m-2255 -10 c0 -5 -2 -10 -4 -10 -3 0 -8 5 -11 10 -3
6 -1 10 4 10 6 0 11 -4 11 -10z m1697 4 c-3 -3 -12 -4 -19 -1 -8 3 -5 6 6 6
11 1 17 -2 13 -5z m33 2 c0 -3 -4 -8 -10 -11 -5 -3 -10 -1 -10 4 0 6 5 11 10
11 6 0 10 -2 10 -4z m437 -2 c-3 -3 -12 -4 -19 -1 -8 3 -5 6 6 6 11 1 17 -2
13 -5z m201 -11 c-10 -2 -28 -2 -40 0 -13 2 -5 4 17 4 22 1 32 -1 23 -4z
m1866 -8 c8 -23 -4 -45 -25 -45 -11 0 -22 7 -25 15 -9 23 3 45 25 45 10 0 21
-7 25 -15z m-4595 -21 c27 -15 58 -36 68 -47 l18 -21 -30 19 c-16 11 -54 32
-84 47 -30 16 -47 28 -38 28 8 0 38 -12 66 -26z m2075 -8 c-3 -9 -10 -16 -15
-16 -6 0 -5 9 1 21 13 24 24 20 14 -5z m-1115 -3 c0 -10 -4 -27 -9 -38 -7 -16
-9 -13 -9 18 -1 20 4 37 9 37 6 0 10 -8 9 -17z m1201 13 c0 -8 -73 -47 -77
-42 -3 3 10 14 28 25 33 20 49 26 49 17z m-2777 -38 c15 -7 16 -12 6 -24 -8
-9 -8 -14 -1 -14 6 0 9 -7 6 -15 -9 -24 -37 -19 -29 5 7 21 -1 25 -24 11 -10
-7 -20 -2 -33 14 -10 13 -18 25 -18 28 0 9 75 5 93 -5z m-193 -33 c11 10 23
16 26 13 3 -3 -4 -15 -16 -26 -38 -35 -17 -44 89 -38 53 3 107 5 121 6 19 0
21 3 12 12 -7 7 -12 20 -12 30 0 18 1 18 28 1 33 -22 36 -24 90 -68 24 -19 47
-35 51 -35 4 0 21 -14 38 -30 32 -32 49 -71 29 -67 -6 1 -12 -13 -14 -30 -2
-22 1 -33 10 -33 9 0 9 -3 -2 -10 -13 -8 -12 -10 3 -10 10 0 15 -4 12 -10 -11
-18 -49 -10 -95 20 -69 46 -70 36 -2 -31 43 -41 68 -58 80 -55 78 25 304 42
372 28 36 -7 17 -9 -90 -9 -136 -1 -253 -18 -310 -46 -28 -14 -29 -14 -58 32
-84 128 -276 255 -476 316 -48 14 -86 29 -83 32 3 3 27 -2 54 -10 54 -18 123
-32 123 -25 0 3 -9 15 -20 28 -11 13 -20 28 -20 33 0 6 9 0 20 -13 19 -22 21
-23 40 -5z m1920 -5 c0 -5 -5 -10 -11 -10 -5 0 -7 5 -4 10 3 6 8 10 11 10 2 0
4 -4 4 -10z m-862 -36 c48 -20 89 -38 91 -40 2 -2 -18 -3 -45 -2 -27 1 -40 4
-29 6 15 3 1 13 -50 38 -94 43 -75 43 33 -2z m1206 7 c3 -5 -1 -14 -8 -20 -11
-9 -19 -9 -35 1 -12 7 -21 16 -21 20 0 11 58 10 64 -1z m-1286 -40 c12 -11 22
-23 22 -28 0 -4 16 -25 36 -45 19 -21 31 -38 26 -38 -5 0 -28 20 -51 45 -23
25 -39 45 -35 45 4 0 -3 9 -16 20 -29 25 -13 26 18 1z m2101 -13 c-26 -39 -86
-98 -99 -98 -10 0 13 30 62 82 22 23 24 28 10 29 -14 0 -14 2 3 9 40 17 47 11
24 -22z m-62 16 c-3 -3 -12 -4 -19 -1 -8 3 -5 6 6 6 11 1 17 -2 13 -5z m-2795
-161 c26 -19 48 -41 48 -49 0 -8 -2 -14 -4 -14 -2 0 -13 -3 -23 -7 -16 -6 -17
-5 -3 12 14 17 13 18 -3 12 -13 -5 -17 -3 -14 5 4 14 -47 64 -75 74 -10 3 -18
10 -18 15 0 12 29 -3 92 -48z m513 27 c8 -13 -35 -13 -55 0 -11 7 -7 10 17 10
17 0 35 -4 38 -10z m4666 0 c38 -21 16 -90 -29 -90 -20 0 -33 8 -46 31 -26 45
-18 57 47 68 5 0 17 -4 28 -9z m-4768 -7 c-7 -2 -21 -2 -30 0 -10 3 -4 5 12 5
17 0 24 -2 18 -5z m437 -23 c-8 -5 -24 -10 -35 -10 -17 0 -17 2 -5 10 8 5 24
10 35 10 17 0 17 -2 5 -10z m1963 -7 c26 -15 -35 -71 -66 -60 -7 2 3 11 21 21
38 20 42 36 8 36 -14 0 -28 5 -32 11 -4 8 4 9 27 4 19 -4 37 -9 42 -12z m2262
7 c-3 -5 -10 -10 -16 -10 -5 0 -9 5 -9 10 0 6 7 10 16 10 8 0 12 -4 9 -10z
m-4168 -76 c-3 -3 -12 -4 -19 -1 -8 3 -5 6 6 6 11 1 17 -2 13 -5z m693 -46 c0
-12 -6 -9 -26 13 -19 22 -19 22 4 8 12 -8 22 -17 22 -21z m-1155 -18 c-3 -5
-2 -10 4 -10 10 0 183 -168 213 -207 17 -22 16 -22 -60 -65 -42 -24 -80 -44
-84 -46 -3 -2 -9 6 -13 18 -3 11 -27 36 -53 56 l-47 36 -1 114 -1 114 24 0
c14 0 21 -4 18 -10z m393 -275 c8 -26 10 -19 20 55 l11 85 -5 -78 c-3 -43 -10
-90 -17 -104 l-12 -26 -7 34 c-4 19 -10 90 -12 159 l-5 125 9 -110 c5 -60 13
-123 18 -140z m222 241 c0 -2 -7 -7 -16 -10 -8 -3 -12 -2 -9 4 6 10 25 14 25
6z m505 -51 c17 -14 27 -25 23 -25 -16 0 -57 24 -62 36 -8 20 5 17 39 -11z
m-655 -111 c0 -67 -17 -154 -30 -154 -8 0 10 -93 43 -225 l23 -89 96 -23 c96
-22 169 -53 218 -92 19 -16 21 -21 9 -21 -9 0 -22 7 -29 14 -6 8 -28 20 -48
27 -20 6 -42 15 -48 20 -25 20 -104 41 -174 47 l-74 7 -34 140 -33 139 28 56
c23 45 29 71 31 142 4 101 22 110 22 12z m-630 23 c111 -48 218 -126 205 -147
-3 -5 -21 6 -40 24 -29 29 -150 106 -167 106 -2 0 6 -33 20 -72 18 -56 23 -86
19 -126 -5 -47 -4 -52 9 -41 13 10 17 10 24 -1 6 -10 14 -7 34 17 28 33 111
81 122 71 3 -4 -1 -14 -9 -23 -9 -9 -24 -28 -33 -44 -9 -15 -31 -36 -50 -46
-60 -32 -77 -59 -82 -128 -6 -84 -22 -98 -22 -19 l0 62 -30 -28 c-26 -25 -30
-36 -30 -81 0 -33 4 -50 10 -46 6 4 7 12 4 18 -5 9 -4 9 5 1 10 -9 8 -19 -7
-44 l-20 -32 -8 34 c-4 18 -6 50 -5 71 2 36 1 37 -19 25 -16 -10 -20 -23 -20
-70 0 -88 37 -145 56 -85 8 26 47 85 55 83 3 0 20 16 38 37 35 40 69 62 78 53
3 -3 1 -11 -4 -18 -6 -7 -13 -26 -17 -43 -5 -24 -1 -20 19 18 24 45 94 107
120 107 8 0 3 -18 -13 -50 -19 -38 -25 -66 -24 -113 0 -42 -3 -56 -8 -42 -5
11 -9 33 -9 50 l-1 30 -45 -47 c-25 -26 -45 -44 -45 -40 0 3 -7 -4 -16 -16
-17 -25 -76 -65 -111 -76 -16 -5 -23 -2 -26 11 -4 15 -5 14 -6 -3 -1 -22 -25
-39 -42 -28 -5 3 -13 -6 -19 -20 -9 -26 -24 -33 -34 -18 -3 5 1 20 8 33 10 20
10 27 -1 37 -7 7 -17 11 -21 9 -4 -3 -8 26 -10 64 -3 58 1 77 23 120 14 29 43
73 65 99 32 39 40 56 46 108 8 73 -9 177 -41 245 -13 27 -17 47 -11 47 6 0 45
-15 86 -33z m480 -84 c0 -5 -19 -21 -41 -38 -23 -16 -57 -49 -76 -72 -20 -24
-40 -43 -47 -43 -6 1 0 10 13 21 35 29 20 33 -35 8 -27 -12 -59 -26 -70 -31
-18 -8 -60 -84 -78 -138 -3 -11 -5 -10 -5 4 -1 28 55 136 93 177 18 20 53 49
77 65 58 36 169 67 169 47z m977 -45 c-3 -8 -6 -5 -6 6 -1 11 2 17 5 13 3 -3
4 -12 1 -19z m24 -74 c5 -15 8 -29 5 -31 -2 -2 -8 10 -14 26 -13 38 -5 41 9 5z
m-1059 -7 c15 -5 16 -11 8 -32 -7 -18 -7 -24 1 -20 13 9 1 -114 -14 -132 -6
-9 -5 -18 3 -28 11 -13 10 -14 -4 -9 -19 7 -21 -21 -5 -80 8 -27 8 -41 0 -49
-8 -8 -11 -1 -11 25 0 43 -34 156 -65 219 l-23 45 21 14 c21 12 21 12 7 -6 -8
-10 1 -5 22 11 26 21 35 36 31 50 -2 12 -1 15 4 9 4 -6 16 -13 25 -17z m1293
-6 c10 -17 -11 -21 -31 -6 -18 14 -18 14 3 15 12 0 24 -4 28 -9z m48 -17 c11
-4 13 -13 7 -37 -13 -52 -19 -117 -10 -117 5 0 39 18 77 39 76 43 98 51 98 36
0 -5 -33 -24 -72 -41 -40 -18 -97 -48 -125 -67 -53 -35 -81 -41 -42 -9 15 13
21 31 23 77 2 32 7 70 12 83 5 13 7 28 3 33 -6 10 7 12 29 3z m-1474 -49 c-21
-36 -37 -51 -45 -43 -5 6 48 77 58 78 4 0 -2 -16 -13 -35z m1378 2 c7 -4 10
-14 6 -23 -3 -8 4 -23 16 -33 l21 -18 -23 -12 c-21 -11 -21 -11 -1 -8 19 4 20
2 10 -17 -46 -82 -59 -97 -80 -92 -12 3 -37 6 -58 6 l-36 0 2 50 3 50 -36 1
c-61 1 -5 17 64 18 33 1 55 5 49 9 -9 5 -8 17 3 44 15 37 31 43 60 25z m-836
-97 c5 0 9 -4 9 -10 0 -18 -20 -11 -45 16 -33 36 -32 49 1 19 15 -14 31 -25
35 -25z m-481 -27 c40 -128 36 -273 -7 -273 -12 0 -12 2 1 15 35 35 29 158
-14 275 -10 28 -14 50 -10 50 5 0 19 -30 30 -67z m867 51 c-3 -3 -12 -4 -19
-1 -8 3 -5 6 6 6 11 1 17 -2 13 -5z m103 -53 c3 -3 22 -17 42 -31 21 -14 40
-31 43 -38 3 -8 -9 -2 -26 13 -18 14 -58 40 -90 56 -33 16 -59 34 -59 39 0 10
79 -25 90 -39z m2050 39 c0 -5 -7 -7 -15 -4 -8 4 -15 8 -15 10 0 2 7 4 15 4 8
0 15 -4 15 -10z m-2081 -64 c-12 -11 -109 -52 -109 -46 0 8 81 50 99 50 8 0
12 -2 10 -4z m586 -48 c33 -22 54 -35 48 -27 -19 19 -16 28 7 22 11 -3 20 -14
20 -24 0 -25 0 -24 10 -59 5 -16 5 -30 2 -30 -4 0 -27 24 -50 54 -26 32 -66
66 -100 86 -43 24 -50 30 -27 25 17 -3 57 -24 90 -47z m-1298 10 c-3 -8 -6 -5
-6 6 -1 11 2 17 5 13 3 -3 4 -12 1 -19z m-97 -29 c12 -21 -3 -35 -22 -22 -7 4
-16 8 -20 8 -3 0 -10 4 -15 9 -5 5 -2 6 6 1 10 -6 12 -2 7 13 -6 17 -3 19 14
15 11 -3 25 -14 30 -24z m-546 4 c-3 -10 2 -38 11 -62 10 -30 12 -48 5 -55 -5
-5 -10 -8 -11 -5 0 2 -3 13 -6 24 -12 43 -15 115 -5 115 6 0 8 -8 6 -17z m628
-43 c-2 -22 -9 -40 -14 -40 -6 0 -7 7 -4 16 3 9 6 32 6 52 0 21 4 32 8 25 4
-7 6 -30 4 -53z m-238 28 c25 -39 30 -76 12 -102 -21 -33 -54 -23 -72 20 -19
45 -18 74 4 90 25 19 40 17 56 -8z m1308 -10 c9 -15 11 -72 2 -81 -4 -3 -15
-2 -25 4 -11 5 -19 6 -19 1 0 -11 21 -30 35 -31 6 -1 10 -16 10 -33 0 -21 -5
-32 -12 -30 -7 1 -13 -2 -13 -8 0 -5 7 -10 15 -10 11 0 15 -11 15 -35 0 -41
-15 -50 -55 -35 -15 6 -30 8 -33 6 -3 -3 7 -10 22 -15 14 -6 26 -15 26 -21 0
-6 8 -10 18 -8 9 2 17 -3 16 -9 -1 -7 -2 -22 -2 -33 -2 -25 -38 -27 -70 -4
-13 9 -31 13 -42 9 -23 -7 -28 10 -5 19 9 3 15 18 15 36 0 30 -13 40 -25 20
-4 -6 -11 -8 -16 -4 -6 3 1 16 16 29 16 16 25 35 25 54 0 16 3 37 7 46 5 15 3
16 -15 6 -25 -13 -28 -5 -8 18 7 9 16 31 20 49 5 31 4 33 -17 27 -21 -6 -21
-5 3 14 l25 21 -25 0 c-20 0 -22 2 -10 11 19 13 111 3 122 -13z m-1032 -7 c0
-27 23 -78 80 -177 28 -48 41 -79 30 -69 -11 10 -32 39 -47 64 -26 44 -27 45
-34 21 -4 -14 -8 -41 -9 -60 l-2 -35 -18 50 c-20 55 -28 225 -10 225 6 0 10
-8 10 -19z m-145 -11 c3 -5 -1 -10 -10 -10 -9 0 -13 5 -10 10 3 6 8 10 10 10
2 0 7 -4 10 -10z m105 -102 c-1 -29 -7 -64 -15 -78 -16 -29 -20 -14 -5 24 5
14 6 26 2 26 -5 0 -13 -12 -19 -27 -11 -27 -11 -26 -5 7 13 76 13 75 -48 71
-30 -1 -51 1 -47 5 7 7 39 13 125 23 8 1 12 -15 12 -51z m139 30 c5 -13 11
-39 15 -58 l7 -35 -19 35 c-27 49 -36 80 -22 80 6 0 14 -10 19 -22z m-460 -79
c1 -48 -25 -139 -39 -139 -5 0 -2 17 7 38 10 22 16 68 17 115 1 81 13 69 15
-14z m-114 4 c-7 -66 -8 -68 -66 -124 -32 -31 -70 -59 -84 -61 -27 -6 -34 6
-10 16 8 3 14 11 13 18 -2 8 6 12 21 10 47 -5 110 85 116 165 2 26 4 50 4 52
1 2 4 2 7 -2 4 -3 3 -36 -1 -74z m1746 40 c10 -19 11 -27 3 -30 -9 -3 -8 -13
3 -35 19 -37 12 -116 -17 -183 -11 -26 -20 -57 -20 -70 0 -12 -7 -28 -15 -35
-8 -7 -15 -19 -15 -27 0 -8 -5 -11 -10 -8 -10 6 -31 -34 -24 -47 2 -3 -5 -4
-16 -1 -11 3 -17 10 -13 16 4 7 0 8 -11 4 -25 -10 -94 13 -99 32 -3 11 -5 9
-6 -5 -1 -15 6 -24 23 -28 13 -3 40 -25 61 -48 35 -38 37 -42 19 -50 -12 -5
-2 -6 26 -3 24 3 63 14 87 25 24 11 45 15 48 9 9 -13 -5 -30 -18 -23 -7 4 5
-8 25 -25 20 -17 50 -59 67 -93 42 -83 44 -178 5 -253 -14 -27 -23 -39 -19
-25 17 76 18 74 -15 94 -21 12 -28 21 -20 26 7 4 -2 13 -24 24 -20 9 -36 21
-36 25 0 10 54 31 79 31 9 0 22 4 30 9 19 12 -3 68 -31 77 -49 15 -126 -22
-100 -48 16 -16 15 -28 -3 -28 -8 0 -21 14 -30 30 -15 29 -15 31 9 55 17 17
36 25 61 25 40 0 46 17 16 44 -17 16 -23 15 -96 -12 -43 -16 -72 -31 -64 -34
8 -3 21 -18 29 -34 15 -31 117 -164 134 -176 5 -3 -7 -13 -26 -21 -20 -8 -39
-20 -42 -26 -4 -6 9 -3 29 6 37 17 37 17 55 -5 11 -13 22 -43 25 -67 8 -50 21
-51 49 -4 10 17 20 29 22 26 5 -4 -35 -99 -45 -107 -3 -3 -14 -36 -23 -73 -19
-72 -50 -127 -72 -127 -29 0 -39 29 -32 92 9 91 8 102 -14 164 -11 31 -17 61
-14 65 3 5 -2 9 -10 9 -8 0 -37 27 -63 59 -50 63 -66 70 -98 46 -16 -13 -19
-26 -17 -80 2 -40 -1 -65 -8 -65 -5 0 -10 -4 -10 -9 0 -4 12 -6 26 -3 24 4 26
7 20 46 -4 22 -10 52 -13 65 -4 15 -2 22 5 18 5 -4 16 -31 22 -59 7 -29 17
-59 23 -65 7 -10 2 -13 -20 -13 -17 0 -47 -11 -67 -25 -26 -17 -38 -21 -41
-12 -2 6 -12 37 -21 67 -9 30 -21 59 -25 65 -5 5 -9 19 -9 31 0 20 3 22 30 14
24 -7 36 -3 72 23 61 43 69 57 52 81 -8 11 -14 28 -14 38 0 14 -6 16 -30 12
-19 -4 -30 -2 -30 5 0 6 6 11 13 11 6 0 -3 8 -21 17 -25 12 -30 19 -21 29 8
10 6 13 -8 12 -10 0 -34 3 -53 7 l-35 7 35 -26 c48 -37 55 -53 29 -67 -17 -9
-23 -8 -31 2 -6 9 -7 6 -3 -11 3 -14 2 -36 -2 -48 -9 -22 -10 -22 -25 -5 -19
21 -48 95 -55 141 -3 18 -9 35 -14 38 -5 3 -9 15 -9 26 0 20 1 20 20 3 11 -10
17 -21 15 -25 -3 -5 20 -10 50 -12 61 -3 61 -3 45 67 -6 27 -21 51 -46 73 -21
17 -41 32 -44 32 -4 0 -18 -27 -30 -60 -23 -61 -38 -72 -70 -49 -12 8 -9 9 11
5 24 -5 28 -1 48 46 12 28 20 53 18 55 -2 1 -34 4 -70 5 -103 3 -78 28 28 28
42 0 59 -6 109 -40 32 -22 62 -37 67 -34 5 3 19 -2 31 -10 12 -9 27 -16 32
-16 13 0 -63 50 -77 50 -7 0 -4 7 6 14 10 8 18 17 18 20 -1 3 2 6 7 6 4 0 7
-10 7 -21 0 -19 28 -49 46 -49 4 0 11 15 15 33 4 17 9 26 12 18 3 -10 8 -7 18
10 11 21 19 24 70 24 55 0 59 2 81 34 13 19 26 46 29 60 3 14 10 36 16 47 6
14 8 56 3 113 -7 94 0 113 26 64z m-940 -12 c11 -27 -6 -19 -22 11 -8 16 -8
19 2 16 6 -2 16 -14 20 -27z m-1090 -70 c-3 -59 18 -104 57 -125 16 -9 21 -15
11 -16 -36 -1 -89 81 -89 138 l-1 27 -28 -31 c-48 -53 -65 -203 -35 -303 14
-49 14 -54 -2 -72 -25 -28 -30 -24 -45 29 -17 60 -14 165 7 256 15 65 20 74
67 113 28 24 53 40 56 38 3 -3 4 -27 2 -54z m526 -44 c6 -41 -3 -90 -16 -82
-6 3 -5 20 0 40 7 23 6 41 -1 54 -13 26 -14 49 0 35 6 -6 13 -27 17 -47z m223
25 c0 -10 6 -26 14 -37 7 -11 16 -36 19 -55 3 -19 9 -44 13 -54 13 -34 -15 -8
-35 32 -24 47 -38 132 -22 132 6 0 11 -8 11 -18z m474 -14 c12 -45 6 -96 -14
-119 l-19 -24 -25 30 c-14 17 -25 33 -26 37 0 4 14 22 30 40 17 18 30 38 30
45 0 22 17 14 24 -9z m-885 -17 c-6 -17 -17 -35 -25 -42 -11 -9 -14 -7 -15 12
-1 17 -3 19 -6 7 -4 -16 -23 -26 -23 -12 0 18 24 44 40 44 11 0 20 5 20 10 0
6 4 10 9 10 6 0 6 -11 0 -29z m821 -6 c-7 -9 -15 -13 -18 -10 -3 2 1 11 8 20
7 9 15 13 18 10 3 -2 -1 -11 -8 -20z m720 15 c0 -5 -7 -10 -16 -10 -8 0 -12 5
-9 10 3 6 10 10 16 10 5 0 9 -4 9 -10z m2033 -5 c-3 -9 -8 -14 -10 -11 -3 3
-2 9 2 15 9 16 15 13 8 -4z m-3260 -32 c-10 -27 -35 -67 -50 -80 -27 -22 153
-56 320 -61 81 -2 147 -6 147 -8 0 -3 -9 -17 -20 -32 -43 -59 -38 -153 12
-202 17 -17 28 -34 25 -37 -11 -11 -92 -22 -158 -23 l-67 0 6 46 c4 40 3 46
-13 43 -10 -2 -20 -10 -23 -17 -2 -8 2 -10 14 -5 14 5 16 3 11 -11 -4 -10 -7
-27 -7 -37 0 -16 -4 -19 -22 -13 -32 9 -33 12 -17 31 16 19 18 105 4 157 -6
21 -5 27 4 22 17 -11 113 -24 104 -15 -5 5 -26 13 -48 18 l-40 9 38 1 c45 1
92 -21 108 -51 11 -21 13 -19 25 27 7 28 13 50 14 50 0 0 -61 0 -135 0 -105 0
-135 -3 -135 -13 0 -7 5 -10 11 -6 8 4 9 -1 4 -16 -6 -19 -4 -22 9 -17 32 13
46 -70 25 -146 -10 -36 -11 -37 -52 -33 -23 2 -49 5 -58 5 -9 1 -21 12 -27 26
-11 25 -13 25 -41 11 l-29 -15 6 42 c3 23 13 69 22 102 l17 60 13 -42 c9 -31
10 -52 2 -82 -5 -23 -6 -41 -2 -41 13 0 20 29 20 88 -1 63 -16 92 -49 92 -13
0 -52 14 -88 30 -35 17 -68 30 -72 30 -4 0 -17 9 -29 20 -16 15 -29 19 -49 13
-27 -7 -27 -7 11 -15 49 -10 66 -24 66 -52 0 -33 -19 -46 -67 -46 -49 0 -93
17 -93 37 0 7 -12 18 -26 23 -32 13 -35 12 -58 -5 -19 -14 -19 -15 0 -36 10
-12 42 -32 69 -46 28 -14 58 -32 67 -40 14 -12 32 -14 85 -9 118 12 136 16
149 26 18 16 26 -3 14 -35 -13 -33 -52 -67 -61 -53 -4 7 -9 6 -13 -1 -4 -6 -2
-11 5 -11 8 0 8 -4 -1 -15 -7 -8 -20 -15 -29 -15 -26 0 -114 45 -136 70 -11
12 -42 32 -70 45 -27 12 -65 34 -83 50 -36 30 -37 30 -50 -5 -7 -18 -5 -32 7
-50 22 -34 76 -81 125 -108 37 -21 38 -22 11 -17 -16 4 -57 19 -90 35 -77 36
-94 38 -128 16 -29 -19 -30 -31 -10 -82 5 -15 2 -16 -25 -11 -30 6 -32 5 -32
-23 0 -15 -16 -59 -35 -96 -19 -37 -35 -68 -35 -70 0 -2 14 -4 31 -4 l32 0
-26 -20 c-26 -20 -75 -25 -111 -11 -18 7 -17 9 10 18 48 17 111 119 120 193 6
55 10 62 53 98 53 45 105 138 105 189 0 18 4 33 8 33 4 0 8 -4 8 -8 0 -5 26 4
59 20 32 15 85 34 117 42 l59 14 -57 1 c-31 1 -60 -4 -64 -10 -13 -21 -88 -47
-106 -36 -11 8 -28 7 -57 -3 -23 -7 -41 -16 -41 -18 0 -3 8 -14 18 -25 17 -19
16 -20 -10 -13 -25 6 -29 2 -68 -71 -27 -53 -53 -88 -81 -108 -22 -16 -42 -41
-46 -55 -9 -40 -49 -113 -72 -134 -29 -26 -27 -33 21 -57 l42 -21 -25 -19
c-26 -20 -55 -18 -119 8 -28 11 -32 16 -20 24 13 9 12 10 -2 5 -10 -3 -28 -2
-40 3 -18 6 -12 9 30 15 79 10 150 85 167 176 4 24 17 43 40 60 45 33 90 96
112 156 14 37 28 54 58 71 121 69 329 81 468 28 11 -5 17 -2 17 6 0 11 67 89
77 89 1 0 -1 -8 -4 -17z m627 -25 c0 -21 -3 -29 -10 -22 -5 5 -7 19 -4 32 9
31 14 27 14 -10z m228 -18 c4 -13 3 -13 -11 -2 -14 12 -19 8 -42 -27 -14 -23
-65 -83 -114 -134 -49 -50 -98 -103 -108 -117 -67 -88 -49 -164 52 -219 36
-20 37 -21 11 -16 -63 13 -116 80 -116 146 0 34 -2 34 -36 13 -15 -10 -29 -13
-34 -8 -6 6 15 29 52 59 95 77 172 151 207 200 36 50 36 51 -34 30 -76 -24
-246 -57 -253 -51 -13 14 22 29 119 51 114 25 223 60 254 82 24 16 47 13 53
-7z m1792 -17 c22 -13 54 -57 51 -70 0 -1 9 -13 19 -25 11 -13 43 -52 71 -88
29 -36 53 -63 55 -60 1 3 19 -14 39 -37 21 -25 33 -48 29 -54 -4 -7 -3 -9 3
-6 6 4 27 -11 46 -32 20 -22 38 -37 41 -33 3 3 6 -3 6 -13 0 -10 3 -16 6 -13
3 4 20 -9 38 -28 20 -21 38 -32 48 -29 8 3 21 -1 28 -9 10 -13 10 -17 -3 -22
-9 -3 -24 -1 -34 4 -10 6 -41 9 -68 7 -36 -2 -78 6 -155 32 -173 58 -207 83
-253 183 -39 86 -47 118 -47 186 0 55 -3 65 -25 82 l-25 20 27 10 c42 15 72
14 103 -5z m-1766 -9 c3 -8 2 -12 -4 -9 -6 3 -10 10 -10 16 0 14 7 11 14 -7z
m-759 -45 c-11 -17 -35 4 -35 30 l1 26 19 -24 c11 -12 18 -27 15 -32z m954 30
c27 -9 31 -16 31 -45 0 -40 -7 -42 -44 -13 -21 17 -29 19 -41 9 -11 -9 -15 -9
-15 -1 0 6 4 11 10 11 5 0 12 11 16 25 3 14 7 25 9 25 1 0 16 -5 34 -11z m61
-55 c0 -19 -4 -33 -8 -30 -8 5 -4 66 4 66 2 0 4 -16 4 -36z m780 8 c0 -14 -45
-52 -62 -52 -20 0 -26 38 -8 56 10 10 70 7 70 -4z m-1301 -51 c9 -6 -2 -9 -30
-9 -30 -1 -39 2 -29 8 19 12 41 12 59 1z m491 -19 c0 -13 -12 -22 -22 -16 -10
6 -1 24 13 24 5 0 9 -4 9 -8z m1272 -35 c25 -50 64 -147 79 -197 7 -25 21 -57
31 -72 21 -31 17 -48 -12 -48 -72 0 -190 265 -151 338 14 27 32 20 53 -21z
m-1589 -7 c-6 -23 -31 -46 -40 -36 -3 3 -1 6 5 6 7 0 12 11 12 25 0 15 6 25
14 25 9 0 12 -7 9 -20z m-336 4 c-3 -3 -12 -4 -19 -1 -8 3 -5 6 6 6 11 1 17
-2 13 -5z m973 -3 c0 -4 11 -25 25 -46 15 -20 23 -40 20 -43 -3 -3 9 -21 27
-39 17 -18 28 -33 23 -33 -13 0 -85 72 -85 85 0 5 4 3 10 -5 5 -8 12 -11 16
-7 9 9 -16 38 -27 31 -8 -5 -14 17 -10 39 3 20 -31 3 -57 -30 -17 -21 -33 -35
-36 -32 -9 8 63 89 80 89 8 0 14 -4 14 -9z m-993 -18 c-4 -3 7 -14 23 -24 17
-11 30 -24 30 -30 0 -7 -8 -5 -19 5 -24 22 -33 8 -21 -34 10 -35 8 -46 -8 -36
-22 13 -26 126 -5 126 4 0 3 -3 0 -7z m536 -35 c35 -20 50 -48 24 -48 -12 0
-67 46 -67 55 0 9 20 5 43 -7z m-232 -35 c-10 -17 -10 -16 -11 3 0 23 13 41
18 25 2 -6 -1 -18 -7 -28z m-815 -47 c-4 -18 -11 -23 -26 -19 -26 7 -25 18 2
37 27 19 32 15 24 -18z m857 -23 c9 -24 15 -43 12 -43 -6 0 -35 69 -35 83 0
15 5 7 23 -40z m1342 6 c19 -17 35 -37 35 -45 0 -17 -26 -18 -37 -1 -4 6 -17
17 -28 23 -21 12 -34 54 -16 54 6 0 26 -14 46 -31z m-2125 -9 c0 -5 -7 -10
-15 -10 -8 0 -15 5 -15 10 0 6 7 10 15 10 8 0 15 -4 15 -10z m725 0 c-3 -5
-16 -10 -28 -9 -21 0 -21 1 -2 9 28 12 37 12 30 0z m1033 -39 c2 -55 -24 -64
-33 -11 -7 44 -1 62 19 54 7 -3 13 -22 14 -43z m-857 -58 c-9 -16 -10 -16 -11
-1 0 9 3 25 7 35 7 16 8 17 11 1 2 -10 -1 -25 -7 -35z m194 13 c35 -34 27 -94
-16 -116 -28 -16 -55 -4 -69 30 -26 64 40 131 85 86z m-270 -16 c13 -6 15 -9
5 -9 -8 0 -22 4 -30 9 -18 12 -2 12 25 0z m936 -26 c10 -28 7 -40 -9 -30 -13
8 -22 56 -10 56 5 0 13 -12 19 -26z m-201 -55 c0 -47 -24 -128 -35 -117 -3 2
0 30 5 60 7 36 7 64 1 81 -11 28 -6 38 15 30 9 -3 14 -21 14 -54z m-1321 5
c-9 -11 -8 -14 0 -14 7 0 10 -4 7 -9 -4 -5 -29 -12 -57 -16 -40 -6 -55 -4 -67
9 -22 22 -11 29 54 34 44 4 54 8 49 20 -4 12 -3 13 10 2 12 -10 13 -16 4 -26z
m715 27 c4 -5 -3 -7 -14 -4 -23 6 -26 13 -6 13 8 0 17 -4 20 -9z m36 -46 c0
-5 -5 -3 -10 5 -5 8 -10 20 -10 25 0 6 5 3 10 -5 5 -8 10 -19 10 -25z m-1337
-21 c-2 -5 -7 -9 -13 -8 -5 1 -25 2 -42 3 -32 3 -32 3 -8 11 31 9 66 6 63 -6z
m1924 -31 c-3 -10 -5 -2 -5 17 0 19 2 27 5 18 2 -10 2 -26 0 -35z m-2052 23
c-28 -12 -25 -13 38 -8 37 2 67 2 67 -1 0 -4 -19 -24 -42 -45 -39 -37 -45 -39
-110 -41 -62 -2 -118 -13 -118 -25 0 -3 15 0 32 5 32 9 146 13 137 5 -2 -2
-22 -7 -44 -10 -35 -6 -153 -37 -195 -53 -16 -6 -63 -14 -94 -17 -12 0 -32 17
-55 48 l-35 49 44 -5 c25 -3 54 -9 65 -13 16 -6 17 -5 5 4 -13 10 -13 12 0 21
8 5 25 10 38 10 13 0 30 7 38 15 11 10 36 15 81 15 57 0 64 -2 53 -15 -11 -13
-9 -13 22 -1 20 9 52 13 79 10 31 -3 38 -2 24 4 -11 5 -60 13 -109 17 -69 5
-86 9 -71 17 10 6 37 11 60 12 24 0 41 4 38 9 -2 4 15 7 39 7 l43 -1 -30 -13z
m413 2 c63 -2 116 -6 118 -10 7 -11 -32 -28 -42 -18 -5 5 -43 10 -84 11 -60 2
-101 -5 -201 -33 -69 -19 -131 -38 -138 -42 -29 -18 -6 13 36 49 40 34 55 41
107 46 34 3 68 4 76 3 8 -2 66 -4 128 -6z m272 -17 c0 -11 -31 -24 -39 -16 -3
3 1 10 9 15 19 12 30 12 30 1z m677 -37 c2 -11 0 -13 -3 -7 -3 8 -15 11 -30 7
-25 -6 -25 -6 -15 45 3 11 46 -30 48 -45z m-76 9 c-12 -20 -14 -14 -5 12 4 9
9 14 11 11 3 -2 0 -13 -6 -23z m169 12 c-7 -8 -17 -15 -23 -15 -6 0 -2 7 9 15
25 19 30 19 14 0z m-951 -57 c-210 -150 -314 -261 -384 -411 -19 -39 -34 -65
-35 -57 0 19 62 140 100 193 59 84 183 202 290 275 59 41 87 41 29 0z m691 12
c0 -5 -4 -10 -10 -10 -5 0 -10 5 -10 10 0 6 5 10 10 10 6 0 10 -4 10 -10z
m-26 -38 c-5 -4 -30 -47 -55 -97 -53 -108 -48 -100 -55 -93 -5 6 69 161 88
186 6 6 16 12 22 12 8 0 8 -3 0 -8z m906 -16 c0 -8 -20 -21 -45 -29 -36 -13
-45 -13 -45 -3 0 14 54 45 78 46 6 0 12 -6 12 -14z m-2665 -10 c26 -8 64 -28
84 -43 20 -16 49 -37 64 -46 15 -10 25 -22 22 -27 -3 -6 -19 0 -35 11 -26 20
-33 21 -75 10 l-47 -12 -50 51 c-27 27 -53 50 -59 50 -5 0 -9 5 -9 10 0 14 49
12 105 -4z m146 -1 c50 -18 128 -79 116 -92 -5 -4 -15 1 -22 11 -12 15 -22 18
-56 13 -38 -5 -45 -2 -76 29 -53 55 -43 66 38 39z m1033 -1 c3 -8 2 -12 -4 -9
-5 3 -20 -3 -32 -14 -30 -29 -37 -16 -7 14 29 28 35 30 43 9z m1100 -70 c11
-32 21 -60 22 -62 1 -2 25 8 53 22 28 15 51 22 51 16 0 -6 -22 -21 -49 -34
-53 -24 -54 -33 -8 -84 30 -32 49 -93 35 -109 -8 -11 -5 -20 14 -41 36 -39 66
-85 84 -128 15 -35 15 -37 0 -25 -9 7 -16 18 -16 23 0 21 -110 164 -139 181
-17 10 -51 34 -76 53 l-46 34 15 -28 c8 -15 11 -34 7 -41 -12 -19 -84 14 -104
48 -9 16 -33 48 -52 71 -19 23 -35 46 -35 52 0 20 30 39 65 41 36 2 37 1 63
-61 15 -35 28 -60 29 -55 2 5 -8 35 -22 67 -31 69 -31 77 -2 96 65 43 86 36
111 -36z m56 59 c-8 -3 -24 -10 -35 -15 -20 -9 -20 -9 -1 6 11 9 27 16 35 15
14 0 14 -1 1 -6z m-1955 -48 c-38 -13 -74 -24 -80 -25 -21 0 54 39 81 43 66 9
65 5 -1 -18z m-501 0 c83 -22 212 -95 166 -95 -5 0 -24 9 -42 20 -26 16 -43
19 -78 14 -70 -9 -76 -12 -54 -29 15 -12 16 -14 4 -15 -9 0 -20 4 -25 9 -13
12 -121 48 -169 56 -45 7 -39 19 20 40 51 19 107 18 178 0z m1281 4 c4 -6 -2
-13 -14 -16 -12 -3 -20 -10 -19 -17 1 -6 -4 -27 -12 -47 -10 -29 -21 -39 -50
-48 -21 -6 -40 -11 -44 -11 -17 0 108 149 126 150 4 0 10 -5 13 -11z m-411
-30 c-34 -36 -66 -56 -58 -37 4 12 73 67 83 68 3 0 -8 -14 -25 -31z m1331 16
c-50 -18 -55 -18 -31 0 11 8 31 15 45 15 22 -1 19 -3 -14 -15z m-1554 -37
c-12 -18 -33 -55 -48 -83 -14 -27 -34 -62 -45 -77 -17 -25 -17 -28 -3 -28 9 0
28 6 43 14 25 13 71 21 97 17 6 -1 -22 -10 -60 -21 -39 -10 -86 -27 -105 -38
-20 -11 -63 -22 -100 -25 -36 -3 -74 -9 -85 -13 -14 -5 -17 -4 -10 4 6 6 41
17 78 24 58 11 67 16 65 32 -6 39 -33 42 -95 13 -32 -15 -49 -20 -38 -11 44
35 94 55 197 78 18 4 35 21 53 53 26 45 63 93 73 93 2 0 -6 -15 -17 -32z
m-100 -15 c18 -18 5 -27 -19 -14 -30 16 -153 13 -202 -4 -49 -17 -69 -19 -54
-6 36 36 246 53 275 24z m2214 -33 c25 0 45 -4 45 -10 0 -25 -144 -1 -154 26
-4 10 3 9 29 -2 19 -8 55 -14 80 -14z m-574 -42 c67 -84 118 -128 147 -129 27
0 27 0 4 -10 -47 -18 -129 25 -201 108 -46 52 -48 58 -23 72 26 16 27 15 73
-41z m-2208 21 c42 -7 77 -16 77 -21 0 -10 2 -11 -125 7 -59 9 -117 13 -129 9
-48 -14 -175 -78 -170 -85 3 -5 -1 -9 -8 -9 -7 0 -71 -7 -142 -15 -117 -14
-150 -20 -226 -40 -24 -7 -24 -6 5 19 68 59 205 122 316 146 55 12 298 5 402
-11z m2526 7 c9 -10 7 -17 -5 -27 -14 -11 -18 -10 -30 6 -8 10 -14 22 -14 27
0 13 37 9 49 -6z m-678 -20 c19 -4 28 -14 32 -32 6 -34 -13 -84 -33 -84 -13 0
-13 -2 0 -10 18 -11 7 -25 -14 -17 -15 6 -66 100 -66 122 0 17 20 33 38 29 10
-1 29 -5 43 -8z m-659 -68 c-14 -29 -27 -57 -27 -61 0 -9 -44 -36 -60 -37 -5
0 3 11 19 25 21 18 25 25 13 25 -10 0 -17 -4 -17 -10 0 -5 -4 -10 -10 -10 -5
0 -10 4 -10 9 0 11 99 111 110 111 5 0 -3 -24 -18 -52z m1561 28 c18 -8 64
-22 104 -31 39 -9 74 -22 76 -29 3 -7 24 -18 47 -25 22 -7 51 -23 62 -37 12
-13 28 -24 35 -24 19 0 84 -45 77 -53 -4 -4 2 -9 12 -13 51 -18 124 -54 124
-62 0 -14 -52 -1 -82 20 -15 11 -45 22 -65 24 l-38 6 27 -16 c52 -28 52 -29
27 -40 -20 -8 -10 -11 61 -16 79 -5 151 -27 166 -51 3 -5 -57 -9 -134 -9 -131
0 -140 1 -153 21 -12 18 -28 22 -100 26 -59 4 -88 2 -93 -6 -10 -15 -43 -14
-91 4 -38 13 -34 14 104 17 l145 3 -60 36 c-32 20 -75 39 -94 43 l-34 6 27
-28 c15 -15 27 -32 27 -38 0 -5 -6 -2 -13 6 -25 31 -70 60 -95 60 -20 0 -23
-3 -14 -12 7 -7 12 -16 12 -22 0 -5 -6 -2 -12 6 -7 9 -26 18 -43 20 -29 4 -28
4 14 17 34 10 50 10 69 1 18 -8 27 -8 32 0 4 6 15 8 26 4 16 -5 16 -4 4 5 -8
6 -26 11 -39 11 -13 0 -30 8 -37 18 -13 16 -14 16 -8 0 8 -23 -2 -23 -33 2
-28 21 -59 25 -83 10 -17 -11 -14 -14 25 -28 26 -9 27 -11 7 -11 -20 -1 -82
24 -82 33 0 2 25 11 55 21 l55 17 -46 24 c-42 22 -47 23 -74 9 -39 -20 -45
-34 -24 -51 28 -23 -6 -5 -44 23 -18 14 -31 28 -28 31 3 3 14 -2 23 -10 16
-14 21 -13 53 9 33 23 33 24 12 30 -22 5 -26 30 -4 26 5 -1 8 7 5 17 -5 18 0
20 37 20 23 0 56 -6 73 -14z m-1194 -40 c-3 -3 -11 5 -18 17 -13 21 -12 21 5
5 10 -10 16 -20 13 -22z m-1464 2 c-166 -7 -250 -15 -342 -33 -174 -35 -221
-55 -294 -126 -35 -32 -67 -59 -72 -59 -5 0 -7 -6 -4 -13 4 -10 -41 -34 -146
-82 -84 -37 -167 -76 -184 -86 -49 -28 -40 -8 29 62 118 118 307 221 518 283
178 51 277 63 525 63 l190 0 -220 -9z m1677 0 c-12 -12 -162 -18 -162 -6 0 11
30 16 105 17 52 1 66 -2 57 -11z m168 -5 c11 -10 20 -23 20 -30 0 -17 17 -17
23 0 3 6 3 -3 0 -20 -6 -37 11 -46 22 -12 5 14 12 18 23 14 10 -4 25 -10 35
-13 13 -3 17 -11 13 -26 -3 -11 -6 -25 -6 -30 0 -4 -15 -5 -32 -2 -18 4 -58
11 -90 15 -85 13 -86 15 -56 94 12 32 20 33 48 10z m-2217 0 c-7 -2 -21 -2
-30 0 -10 3 -4 5 12 5 17 0 24 -2 18 -5z m2350 0 c-7 -2 -19 -2 -25 0 -7 3 -2
5 12 5 14 0 19 -2 13 -5z m102 -31 c-7 -8 -35 7 -35 18 0 6 7 6 20 -2 10 -7
17 -14 15 -16z m-936 4 c-2 -2 -15 -7 -29 -10 l-25 -7 25 15 c21 12 42 14 29
2z m501 -1 c0 -2 -15 -11 -33 -20 -43 -20 -234 -27 -206 -7 10 7 38 17 61 21
46 9 178 14 178 6z m700 -16 c0 -4 -7 -6 -15 -3 -8 4 -15 10 -15 15 0 4 7 6
15 3 8 -4 15 -10 15 -15z m-680 -9 c0 -5 -5 -10 -11 -10 -5 0 -7 5 -4 10 3 6
8 10 11 10 2 0 4 -4 4 -10z m407 -48 c-4 -28 -15 -36 -34 -24 -10 6 -10 15 -1
40 9 24 15 29 25 20 7 -6 12 -22 10 -36z m-347 28 c12 -8 11 -10 -7 -10 -12 0
-25 5 -28 10 -8 13 15 13 35 0z m-1737 -7 c-7 -2 -21 -2 -30 0 -10 3 -4 5 12
5 17 0 24 -2 18 -5z m1677 -3 c13 -8 13 -9 0 -13 -8 -3 -39 -12 -69 -21 -29
-9 -59 -16 -67 -16 -7 0 -18 -9 -24 -20 -6 -11 -21 -20 -34 -20 -13 0 -42 -13
-64 -30 -61 -44 -86 -40 -34 5 l27 24 -25 1 c-14 0 -45 -12 -70 -27 -36 -21
-59 -27 -114 -28 -69 -2 -70 -2 -47 16 31 25 78 37 199 48 66 6 110 15 120 24
10 9 33 22 52 30 28 12 31 16 13 16 -12 1 -46 -10 -75 -22 -50 -22 -204 -45
-194 -29 3 4 26 19 53 32 43 22 62 25 181 26 74 2 136 5 140 8 7 8 14 7 32 -4z
m-676 -9 c3 -5 -1 -11 -9 -14 -9 -4 -12 -1 -8 9 6 16 10 17 17 5z m-1159 -6
c-5 -3 -53 -13 -105 -24 -115 -25 -249 -61 -348 -95 -40 -14 -70 -21 -67 -15
4 5 11 9 17 9 5 0 24 6 41 13 94 40 248 84 377 106 48 9 102 12 85 6z m2400
-6 c-30 -5 -54 -4 -59 1 -7 7 12 10 50 9 l59 -1 -50 -9z m-450 -18 c18 -7 17
-9 -12 -24 -18 -10 -40 -17 -50 -16 -11 0 -6 5 12 11 39 14 42 17 25 28 -18
11 -3 12 25 1z m535 -5 c0 -3 -4 -8 -10 -11 -5 -3 -10 -1 -10 4 0 6 5 11 10
11 6 0 10 -2 10 -4z m-68 -13 c-33 -3 -42 -8 -38 -19 3 -9 -1 -14 -13 -14 -10
0 -21 9 -24 20 -5 19 -1 20 56 18 51 -1 54 -2 19 -5z m-657 -23 c-16 -4 -38
-11 -47 -15 -10 -4 -18 -4 -18 -1 0 10 42 25 70 24 23 0 22 -1 -5 -8z m392
-22 c-3 -7 -5 -2 -5 12 0 14 2 19 5 13 2 -7 2 -19 0 -25z m-292 2 c-28 -12
-37 -12 -30 0 3 6 16 10 28 9 21 0 21 -1 2 -9z m615 -5 c50 -26 63 -81 58
-255 -3 -97 -1 -147 6 -140 5 5 12 76 16 157 l7 148 1 -168 c2 -166 -2 -192
-34 -224 -15 -15 -64 -17 -64 -3 0 24 -22 5 -70 -60 -29 -38 -54 -70 -56 -70
-8 0 -1 336 8 347 6 8 2 19 -11 32 -12 12 -16 21 -11 21 6 0 10 9 10 20 0 11
-6 20 -12 20 -9 0 -10 3 -2 8 6 4 13 14 16 22 3 11 9 6 21 -16 9 -17 23 -37
33 -45 10 -8 6 4 -11 31 -15 25 -32 47 -36 48 -5 2 -9 21 -9 43 0 37 2 39 30
39 22 0 30 -5 30 -17 0 -20 38 -88 45 -81 3 2 -4 22 -15 43 -11 22 -20 45 -20
51 0 7 -15 14 -32 16 -22 2 -34 9 -36 21 -3 16 2 18 38 14 39 -3 44 -7 56 -43
8 -21 14 -40 14 -41 0 -2 5 -3 10 -3 7 0 7 7 -1 21 -19 36 -29 79 -18 79 6 0
23 -7 39 -15z m-670 -15 c-8 -5 -19 -10 -25 -10 -5 0 -3 5 5 10 8 5 20 10 25
10 6 0 3 -5 -5 -10z m403 -88 c-3 -23 -10 -42 -14 -42 -12 0 -11 17 3 57 15
42 18 38 11 -15z m-603 31 c-51 -3 -88 -9 -93 -16 -7 -9 -10 -9 -14 1 -3 7
-24 12 -53 12 -37 0 -52 -5 -63 -20 -12 -17 -27 -20 -105 -23 -51 -2 -92 -2
-92 -1 0 5 63 36 90 45 14 4 113 7 220 6 107 -1 157 -3 110 -4z m1198 0 c-10
-2 -26 -2 -35 0 -10 3 -2 5 17 5 19 0 27 -2 18 -5z m-721 -120 c-2 -21 -4 -4
-4 37 0 41 2 58 4 38 2 -21 2 -55 0 -75z m-1797 82 c0 -2 -23 -16 -50 -30 -28
-14 -98 -55 -158 -91 -59 -36 -93 -53 -77 -39 31 26 264 165 277 165 5 0 8 -2
8 -5z m2867 -11 c-3 -3 -12 -4 -19 -1 -8 3 -5 6 6 6 11 1 17 -2 13 -5z m-903
-94 c6 -22 4 -21 -14 8 -12 17 -27 32 -32 32 -6 0 -5 7 3 16 11 14 14 13 25
-8 6 -13 15 -34 18 -48z m-47 -72 c-2 -18 -4 -4 -4 32 0 36 2 50 4 33 2 -18 2
-48 0 -65z m-960 61 c-22 -11 -41 -18 -43 -16 -5 5 56 37 71 36 6 0 -7 -9 -28
-20z m-69 -21 c-5 -16 -48 -24 -48 -9 0 8 17 16 43 20 5 0 7 -5 5 -11z m919
-70 c-2 -18 -4 -6 -4 27 0 33 2 48 4 33 2 -15 2 -42 0 -60z m187 56 c3 -8 2
-12 -4 -9 -6 3 -10 10 -10 16 0 14 7 11 14 -7z m-2330 -55 c-10 -11 -28 -25
-39 -30 -11 -6 -4 4 15 21 40 35 52 39 24 9z m2368 -31 c1 -15 -1 -28 -7 -30
-5 -2 -11 17 -13 42 -2 48 13 38 20 -12z m-1147 -76 c10 -23 16 -45 13 -48 -7
-6 -58 98 -58 118 0 17 22 -17 45 -70z m520 40 c-16 -15 -22 -18 -14 -7 24 33
34 43 38 39 3 -3 -8 -17 -24 -32z m-325 -6 c0 -2 -7 -7 -16 -10 -8 -3 -12 -2
-9 4 6 10 25 14 25 6z m-1460 -46 c0 -5 -5 -10 -11 -10 -5 0 -7 5 -4 10 3 6 8
10 11 10 2 0 4 -4 4 -10z m2410 -75 c0 -5 -5 -3 -10 5 -5 8 -10 20 -10 25 0 6
5 3 10 -5 5 -8 10 -19 10 -25z m200 -291 c0 -262 -2 -295 -15 -284 -9 7 -15
29 -15 51 l0 39 -65 0 c-37 0 -65 -4 -65 -10 0 -5 22 -10 48 -10 57 0 71 -9
39 -25 -17 -9 -28 -9 -49 2 -37 18 -38 18 -38 -23 0 -19 -4 -33 -9 -29 -14 8
-14 455 -1 455 10 0 14 -72 11 -175 -2 -60 9 -48 39 42 10 32 33 96 49 142 17
46 31 85 31 86 0 5 31 35 36 35 2 0 4 -133 4 -296z m-360 195 c0 -98 -2 -94
77 -186 33 -39 40 -41 46 -10 2 12 2 2 0 -23 -3 -32 -1 -41 6 -30 17 25 22 6
28 -103 6 -112 -6 -184 -16 -92 l-6 50 -63 -2 c-72 -2 -77 12 -5 16 66 3 68
11 2 11 -37 0 -49 3 -39 9 8 6 27 7 42 4 16 -3 34 0 43 7 13 10 15 9 15 -9 0
-11 5 -21 10 -21 12 0 3 49 -11 64 -5 6 -9 18 -9 28 0 10 -4 18 -10 18 -5 0
-17 17 -27 38 -9 20 -23 42 -29 47 -7 6 -21 25 -32 43 l-20 33 -9 -173 -10
-173 -1 273 c-1 176 2 272 8 272 6 0 10 -37 10 -91z m294 49 c-3 -13 -14 -41
-24 -63 -10 -22 -23 -57 -30 -77 -16 -51 -26 -48 -29 8 0 26 -3 50 -6 54 -7
12 64 100 81 100 11 0 14 -6 8 -22z m-571 -13 c-3 -9 -8 -14 -10 -11 -3 3 -2
9 2 15 9 16 15 13 8 -4z m-609 -21 c3 -8 2 -12 -4 -9 -6 3 -10 10 -10 16 0 14
7 11 14 -7z m582 -31 c-14 -28 -62 -87 -55 -68 2 6 15 29 29 52 27 47 49 59
26 16z m384 -427 c0 -3 -4 -8 -10 -11 -5 -3 -10 -1 -10 4 0 6 5 11 10 11 6 0
10 -2 10 -4z"/>
<path d="M3851 6464 c0 -11 3 -14 6 -6 3 7 2 16 -1 19 -3 4 -6 -2 -5 -13z"/>
<path d="M3835 6429 c-4 -6 -5 -12 -2 -15 2 -3 7 2 10 11 7 17 1 20 -8 4z"/>
<path d="M2454 6363 c-4 -21 -8 -40 -8 -43 -1 -3 -5 -10 -9 -17 -10 -15 24
-103 60 -157 15 -22 41 -64 58 -92 17 -29 44 -66 59 -84 l27 -33 30 28 c33 33
37 59 12 75 -17 11 -17 11 0 6 9 -3 17 -4 17 -1 0 3 -227 344 -235 353 -1 2
-6 -14 -11 -35z m119 -156 c3 -8 1 -20 -4 -28 -6 -10 -9 -7 -9 14 0 29 5 35
13 14z"/>
<path d="M1150 6041 c0 -5 7 -12 16 -15 14 -5 15 -4 4 9 -14 17 -20 19 -20 6z"/>
<path d="M3833 4893 c15 -2 37 -2 50 0 12 2 0 4 -28 4 -27 0 -38 -2 -22 -4z"/>
<path d="M3880 4690 c-8 -5 -10 -10 -4 -10 6 0 22 -11 35 -23 23 -23 69 -42
69 -29 0 10 -64 52 -79 52 -7 0 -9 5 -6 10 8 12 4 12 -15 0z"/>
<path d="M1178 5663 c7 -3 16 -2 19 1 4 3 -2 6 -13 5 -11 0 -14 -3 -6 -6z"/>
<path d="M1280 5651 c0 -4 11 -6 25 -3 14 2 25 6 25 8 0 2 -11 4 -25 4 -14 0
-25 -4 -25 -9z"/>
<path d="M2428 5344 c-3 -3 -27 -7 -53 -9 -53 -4 -66 -12 -45 -25 20 -13 40
-12 40 0 0 6 8 10 18 10 19 1 74 29 56 30 -6 0 -13 -3 -16 -6z"/>
<path d="M2072 4325 c-6 -14 -17 -25 -23 -25 -19 0 -3 -80 20 -103 19 -19 21
-19 27 -3 4 10 1 36 -5 58 -7 22 -9 53 -6 69 8 36 2 37 -13 4z"/>
<path d="M2105 4177 c-12 -9 -14 -16 -7 -21 6 -3 16 3 22 14 13 24 10 25 -15
7z"/>
<path d="M3835 4407 c-4 -14 -14 -28 -23 -30 -12 -3 -10 -5 5 -6 16 -1 24 6
29 24 4 14 4 29 1 32 -3 3 -9 -6 -12 -20z"/>
<path d="M2489 4328 c-5 -24 -7 -87 -3 -100 3 -10 14 -18 25 -18 16 0 19 7 19
39 0 46 -19 67 -21 24 -1 -15 -1 -35 0 -43 2 -13 1 -13 -9 0 -5 8 -7 34 -4 58
4 23 4 42 0 42 -3 0 -6 -1 -7 -2z"/>
<path d="M3804 4281 c2 -44 16 -50 16 -8 0 21 -4 37 -9 37 -5 0 -8 -13 -7 -29z"/>
<path d="M3806 4181 c-4 -7 -5 -15 -2 -18 9 -9 19 4 14 18 -4 11 -6 11 -12 0z"/>
<path d="M3807 4090 c-3 -11 -1 -23 4 -26 5 -3 9 6 9 20 0 31 -6 34 -13 6z"/>
<path d="M3797 3986 c-6 -15 1 -26 15 -26 4 0 8 9 8 20 0 23 -15 27 -23 6z"/>
<path d="M3850 3735 c13 -14 26 -25 28 -25 3 0 -5 11 -18 25 -13 14 -26 25
-28 25 -3 0 5 -11 18 -25z"/>
<path d="M3748 3675 c2 -14 6 -25 8 -25 2 0 4 11 4 25 0 14 -4 25 -9 25 -4 0
-6 -11 -3 -25z"/>
<path d="M3870 3538 c0 -10 9 -22 19 -28 22 -11 54 -3 45 12 -4 6 -10 5 -15
-3 -7 -11 -13 -9 -29 11 -15 20 -20 21 -20 8z"/>
<path d="M3937 3486 c-10 -8 -27 -12 -37 -9 -34 9 -22 -15 35 -76 l56 -58 34
16 c30 14 48 41 27 41 -4 0 -25 23 -45 50 -41 54 -43 56 -70 36z m29 -53 c25
-29 30 -43 16 -43 -10 0 -62 53 -62 63 0 16 24 5 46 -20z"/>
<path d="M2726 3824 c-3 -9 -6 -23 -5 -32 0 -10 5 -5 11 11 23 64 53 -9 45
-111 -6 -74 -1 -76 12 -6 5 27 13 58 16 69 6 16 5 17 -4 5 -9 -12 -11 -11 -11
10 -1 48 -11 70 -35 70 -13 0 -26 -7 -29 -16z"/>
<path d="M2880 3709 c0 -5 5 -7 10 -4 6 3 10 8 10 11 0 2 -4 4 -10 4 -5 0 -10
-5 -10 -11z"/>
<path d="M2657 3696 c-4 -10 -5 -21 -2 -24 9 -9 17 6 13 25 -3 17 -4 17 -11
-1z"/>
<path d="M2960 3706 c0 -2 7 -6 15 -10 8 -3 15 -1 15 4 0 6 -7 10 -15 10 -8 0
-15 -2 -15 -4z"/>
<path d="M2950 3661 c0 -15 60 -41 96 -41 20 0 35 3 32 6 -10 10 -128 42 -128
35z"/>
<path d="M1850 3430 c-9 -6 -10 -10 -3 -10 6 0 15 5 18 10 8 12 4 12 -15 0z"/>
<path d="M1798 3423 c7 -3 16 -2 19 1 4 3 -2 6 -13 5 -11 0 -14 -3 -6 -6z"/>
<path d="M1865 3410 c-13 -6 -15 -9 -5 -9 8 0 22 4 30 9 18 12 2 12 -25 0z"/>
<path d="M1990 3380 c0 -5 7 -7 15 -4 8 4 15 8 15 10 0 2 -7 4 -15 4 -8 0 -15
-4 -15 -10z"/>
<path d="M5326 3862 c-8 -13 10 -52 24 -52 14 0 12 23 -3 45 -10 12 -16 14
-21 7z"/>
<path d="M5790 3460 c0 -5 5 -10 11 -10 5 0 7 5 4 10 -3 6 -8 10 -11 10 -2 0
-4 -4 -4 -10z"/>
<path d="M2005 3310 c11 -5 27 -9 35 -9 9 0 8 4 -5 9 -11 5 -27 9 -35 9 -9 0
-8 -4 5 -9z"/>
<path d="M2713 3135 c-12 -14 -18 -25 -15 -25 10 0 25 12 41 33 21 27 -1 20
-26 -8z"/>
<path d="M4180 2992 c0 -10 48 -37 55 -31 2 3 -9 13 -25 23 -17 9 -30 13 -30
8z"/>
<path d="M4255 2940 c11 -5 27 -9 35 -9 13 -1 13 0 0 9 -8 5 -24 9 -35 9 l-20
0 20 -9z"/>
<path d="M4315 2921 c-2 -4 10 -8 26 -9 16 -1 29 -1 29 2 0 7 -50 13 -55 7z"/>
<path d="M4540 2830 c14 -4 36 -8 50 -8 23 -1 23 0 5 8 -11 5 -33 8 -50 8 -29
0 -29 0 -5 -8z"/>
<path d="M4705 2711 c-19 -8 -19 -8 2 -19 12 -7 34 -12 49 -12 26 0 27 0 9 20
-19 21 -29 23 -60 11z"/>
<path d="M3759 2592 c6 -12 16 -24 22 -28 8 -4 8 -1 0 14 -6 12 -16 24 -22 28
-8 4 -8 1 0 -14z"/>
<path d="M3801 2483 c-1 -24 1 -43 3 -43 8 0 12 48 5 66 -5 13 -8 7 -8 -23z"/>
<path d="M3760 2471 c0 -17 5 -33 10 -36 6 -4 10 8 10 29 0 20 -4 36 -10 36
-5 0 -10 -13 -10 -29z"/>
<path d="M3770 2360 c-6 -11 -8 -20 -6 -20 3 0 10 9 16 20 6 11 8 20 6 20 -3
0 -10 -9 -16 -20z"/>
<path d="M3782 2340 c-12 -16 -22 -35 -22 -41 0 -6 11 5 25 26 31 45 28 57 -3
15z"/>
<path d="M3915 2344 c-9 -14 -14 -28 -12 -31 6 -5 47 37 47 49 0 17 -18 7 -35
-18z"/>
<path d="M4906 6286 c-28 -47 -32 -66 -16 -66 6 0 10 7 10 16 0 9 5 12 12 8 7
-5 8 -3 4 5 -12 18 14 73 31 67 8 -3 11 -1 8 4 -11 18 -23 10 -49 -34z"/>
<path d="M4957 6233 c-4 -3 -7 -15 -7 -25 0 -10 -4 -18 -10 -18 -5 0 -10 10
-10 22 0 12 -3 18 -7 14 -10 -10 -10 -96 -1 -96 9 0 38 59 38 77 0 8 4 11 10
8 6 -3 7 1 4 9 -7 18 -8 19 -17 9z"/>
<path d="M4799 6109 c-41 -55 -41 -57 -11 -86 16 -15 31 -34 34 -42 2 -9 16 5
36 36 32 50 41 80 20 67 -7 -4 -8 -3 -4 5 8 13 -1 51 -13 51 -3 0 -15 -14 -25
-32 -16 -27 -17 -30 -3 -25 11 4 14 2 10 -9 -6 -17 -23 -19 -23 -1 0 7 -7 4
-15 -7 -23 -30 -18 -8 6 25 29 42 18 58 -12 18z m53 -71 c-7 -7 -12 -8 -12 -2
0 14 12 26 19 19 2 -3 -1 -11 -7 -17z"/>
<path d="M5445 5930 c3 -5 8 -10 11 -10 2 0 4 5 4 10 0 6 -5 10 -11 10 -5 0
-7 -4 -4 -10z"/>
<path d="M5528 5933 c7 -3 16 -2 19 1 4 3 -2 6 -13 5 -11 0 -14 -3 -6 -6z"/>
<path d="M4917 5842 c-25 -27 -21 -36 5 -12 12 11 19 22 16 25 -2 3 -12 -3
-21 -13z"/>
<path d="M4840 5772 c-25 -19 -58 -45 -75 -58 -16 -13 -27 -26 -23 -29 5 -5
69 22 108 46 8 5 25 14 38 19 19 8 23 30 6 30 -3 0 -2 -4 1 -10 3 -5 0 -10 -9
-10 -8 0 -23 -3 -33 -7 -10 -4 -5 4 12 19 46 40 26 40 -25 0z"/>
<path d="M5715 5556 c-110 -56 -231 -124 -270 -151 -79 -56 -145 -114 -145
-128 0 -9 55 29 99 69 37 34 210 114 246 114 9 0 23 7 31 15 9 8 24 15 34 15
22 0 56 46 38 52 -7 3 -5 7 6 11 10 4 15 3 11 -3 -8 -13 5 -13 25 0 13 9 13
10 0 10 -13 0 -13 1 0 10 20 13 33 13 25 0 -3 -6 1 -7 10 -3 12 4 13 8 5 13
-13 8 24 40 46 40 7 0 22 9 35 20 13 10 20 19 14 19 -5 -1 -100 -47 -210 -103z"/>
<path d="M5495 5574 c-22 -8 -48 -18 -57 -21 -38 -12 -17 -25 30 -19 111 16
202 46 137 46 -17 0 -39 2 -50 5 -11 3 -38 -2 -60 -11z"/>
<path d="M5798 5513 c7 -3 16 -2 19 1 4 3 -2 6 -13 5 -11 0 -14 -3 -6 -6z"/>
<path d="M4944 5381 c10 -16 65 -40 71 -31 7 11 -15 26 -48 34 -18 4 -26 3
-23 -3z"/>
<path d="M5050 5325 c7 -9 15 -13 17 -11 7 7 -7 26 -19 26 -6 0 -6 -6 2 -15z"/>
<path d="M5050 5200 c0 -5 7 -10 16 -10 8 0 12 5 9 10 -3 6 -10 10 -16 10 -5
0 -9 -4 -9 -10z"/>
<path d="M6305 5120 c3 -5 8 -10 11 -10 2 0 4 5 4 10 0 6 -5 10 -11 10 -5 0
-7 -4 -4 -10z"/>
<path d="M6613 5113 c-20 -7 -15 -23 6 -23 10 0 21 7 25 15 5 15 -7 18 -31 8z"/>
<path d="M6810 5080 c19 -13 30 -13 30 0 0 6 -10 10 -22 10 -19 0 -20 -2 -8
-10z"/>
<path d="M6558 5043 c-9 -19 -21 -28 -36 -27 -25 1 -29 -11 -7 -20 15 -5 79
17 103 36 10 8 8 13 -5 24 -27 20 -41 17 -55 -13z"/>
<path d="M6328 4813 c6 -2 18 -2 25 0 6 3 1 5 -13 5 -14 0 -19 -2 -12 -5z"/>
<path d="M7180 4730 c0 -5 5 -10 10 -10 6 0 10 5 10 10 0 6 -4 10 -10 10 -5 0
-10 -4 -10 -10z"/>
<path d="M7128 4723 c7 -3 16 -2 19 1 4 3 -2 6 -13 5 -11 0 -14 -3 -6 -6z"/>
<path d="M7078 4713 c7 -3 16 -2 19 1 4 3 -2 6 -13 5 -11 0 -14 -3 -6 -6z"/>
<path d="M7095 4680 c-55 -15 -92 -18 -172 -14 l-102 5 1 -31 c1 -24 7 -34 25
-41 23 -8 29 -20 16 -32 -3 -4 -12 -2 -19 4 -8 7 -19 7 -30 1 -13 -7 -8 -10
25 -16 22 -3 41 -10 41 -14 0 -9 49 -32 67 -32 7 0 13 -7 13 -15 0 -10 11 -16
33 -17 17 0 39 -1 47 -2 8 -1 16 -11 18 -23 2 -13 8 -23 13 -23 5 0 27 -8 49
-17 36 -16 40 -21 40 -54 0 -32 12 -49 36 -49 2 0 4 88 4 195 0 223 11 205
-105 175z"/>
<path d="M6990 4412 c0 -9 25 -33 47 -46 14 -8 7 19 -10 42 -11 14 -37 16 -37
4z"/>
<path d="M7180 3305 c-7 -9 -11 -17 -9 -20 3 -2 10 5 17 15 14 24 10 26 -8 5z"/>
<path d="M7090 3256 c0 -9 5 -16 10 -16 6 0 10 4 10 9 0 6 -4 13 -10 16 -5 3
-10 -1 -10 -9z"/>
<path d="M7137 3264 c-4 -4 -7 -19 -6 -33 0 -16 3 -20 6 -11 3 8 11 18 17 22
8 5 8 10 0 18 -6 6 -13 7 -17 4z"/>
<path d="M7033 3211 c0 -11 5 -18 9 -15 4 3 5 11 1 19 -7 21 -12 19 -10 -4z"/>
<path d="M7160 3220 c0 -5 4 -10 9 -10 6 0 13 5 16 10 3 6 -1 10 -9 10 -9 0
-16 -4 -16 -10z"/>
<path d="M7190 3194 c0 -14 -7 -15 -41 -10 -36 6 -40 4 -35 -12 5 -13 0 -18
-16 -19 -12 -1 -28 3 -35 9 -18 14 -16 -2 3 -27 13 -17 16 -18 24 -5 7 10 10
11 10 3 0 -7 8 -13 18 -14 10 0 12 -3 5 -6 -18 -7 -16 -23 2 -23 8 0 15 -5 15
-11 0 -7 -7 -8 -17 -4 -10 4 -27 10 -38 12 -39 10 7 -22 63 -45 l52 -21 0 95
c0 51 -2 94 -5 94 -3 0 -5 -7 -5 -16z m-26 -61 c-24 -17 -42 0 -24 22 10 12
16 13 27 3 13 -10 12 -14 -3 -25z"/>
<path d="M7010 3177 c0 -8 7 -17 15 -21 8 -3 15 -2 15 3 0 5 -7 14 -15 21 -12
10 -15 10 -15 -3z"/>
<path d="M6896 3162 c16 -15 87 -52 98 -52 2 0 -1 10 -7 23 -8 18 -17 22 -35
19 -14 -3 -28 1 -32 8 -5 8 -16 15 -25 16 -15 2 -15 1 1 -14z"/>
<path d="M7030 3100 c0 -13 18 -22 24 -11 3 5 -1 11 -9 15 -8 3 -15 1 -15 -4z"/>
</g>
</svg>
